<svg xmlns="http://www.w3.org/2000/svg" xmlns:xlink="http://www.w3.org/1999/xlink" width="190" height="108" viewBox="0 0 190 108">
  <defs>
    <clipPath id="clip-path">
      <rect id="Rectángulo_402354" data-name="Rectángulo 402354" width="84" height="86" transform="translate(0 -0.251)" fill="none"/>
    </clipPath>
  </defs>
  <g id="Grupo_1110145" data-name="Grupo 1110145" transform="translate(-1230.051 -399)">
    <rect id="Rectángulo_402363" data-name="Rectángulo 402363" width="190" height="108" rx="8" transform="translate(1230.051 399)" fill="#fe8849"/>
    <g id="Grupo_1110141" data-name="Grupo 1110141" transform="translate(1288.051 410.277)">
      <g id="Grupo_1110140" data-name="Grupo 1110140" transform="translate(0 -0.026)" clip-path="url(#clip-path)">
        <path id="Trazado_904943" data-name="Trazado 904943" d="M59.294,69.291H5V46.43A11.431,11.431,0,0,1,16.43,35H47.864a11.431,11.431,0,0,1,11.43,11.43Z" transform="translate(2.144 15.03)" fill="#48cae4"/>
        <path id="Trazado_904944" data-name="Trazado 904944" d="M59.294,46.43V69.291H5V46.43A11.427,11.427,0,0,1,16.43,35H25l1.429,10,4.286,4.286,7.144-5.715L39.291,35h8.573c.214,0,.443,0,.657.014a13.148,13.148,0,0,0,1.643,3.443,3.208,3.208,0,0,1,.557,1.829,3.269,3.269,0,0,0,3.286,3.286h4.929a11.771,11.771,0,0,1,.357,2.858" transform="translate(2.144 15.03)" fill="#00b4d8"/>
        <path id="Trazado_904945" data-name="Trazado 904945" d="M15.715,27h0V17H10v4.286A5.715,5.715,0,0,0,15.715,27" transform="translate(4.288 7.311)" fill="#edb88e"/>
        <path id="Trazado_904946" data-name="Trazado 904946" d="M10,17v4.286a4.281,4.281,0,0,1,4.286,4.286v1.243A5.225,5.225,0,0,0,15.715,27V17Z" transform="translate(4.288 7.311)" fill="#da9367"/>
        <path id="Trazado_904947" data-name="Trazado 904947" d="M34,27h0V17h5.715v4.286A5.715,5.715,0,0,1,34,27" transform="translate(14.579 7.311)" fill="#edb88e"/>
        <path id="Trazado_904948" data-name="Trazado 904948" d="M39.715,17v4.286a4.281,4.281,0,0,0-4.286,4.286v1.243A5.225,5.225,0,0,1,34,27V17Z" transform="translate(14.579 7.311)" fill="#da9367"/>
        <path id="Trazado_904949" data-name="Trazado 904949" d="M26.144,44.717h0A7.145,7.145,0,0,1,19,37.573V29H33.288v8.573a7.145,7.145,0,0,1-7.144,7.144" transform="translate(8.147 12.457)" fill="#edb88e"/>
        <path id="Trazado_904950" data-name="Trazado 904950" d="M33.288,36.315a14.089,14.089,0,0,1-8.616,4.043,7.051,7.051,0,0,0,7.744.629A7.142,7.142,0,0,1,19,37.573V29H33.288Z" transform="translate(8.147 12.457)" fill="#da9367"/>
        <path id="Trazado_904951" data-name="Trazado 904951" d="M28.288,41.861h0A14.288,14.288,0,0,1,14,27.573V19H42.576v8.573A14.288,14.288,0,0,1,28.288,41.861" transform="translate(6.003 8.169)" fill="#f9dbaf"/>
        <path id="Trazado_904952" data-name="Trazado 904952" d="M22,45V35H14.858V46.43L12,50.717V69.291H29.145V53.574Z" transform="translate(5.145 15.03)" fill="#fcea42"/>
        <path id="Trazado_904953" data-name="Trazado 904953" d="M31.144,45V35h7.144V46.43l2.858,4.286V69.291H24V53.574Z" transform="translate(10.291 15.03)" fill="#fcea42"/>
        <rect id="Rectángulo_402350" data-name="Rectángulo 402350" width="10" height="15" transform="translate(51 68.749)" fill="#edb88e"/>
        <path id="Trazado_904954" data-name="Trazado 904954" d="M36,63.717H46V48H36Zm4.286-10.83a13.917,13.917,0,0,1-.714,4.4c-.014.029-.014.057-.029.071a7.123,7.123,0,0,1-2.115-5.072V50.858h2.665a6.812,6.812,0,0,1,.193,1.6Z" transform="translate(15.436 20.604)" fill="#da9367"/>
        <rect id="Rectángulo_402351" data-name="Rectángulo 402351" width="10" height="15" transform="translate(7 68.749)" fill="#edb88e"/>
        <path id="Trazado_904955" data-name="Trazado 904955" d="M5,63.717H15V48H5Zm8.573-11.43a7.123,7.123,0,0,1-2.115,5.072c-.014-.014-.014-.043-.029-.071a13.917,13.917,0,0,1-.714-4.4v-.429a6.812,6.812,0,0,1,.193-1.6h2.665Z" transform="translate(2.144 20.604)" fill="#da9367"/>
        <path id="Trazado_904956" data-name="Trazado 904956" d="M28.717,3h0A15.717,15.717,0,0,0,13,18.717v1.429H44.433V18.717A15.717,15.717,0,0,0,28.717,3" transform="translate(5.574 1.308)" fill="#fdc741"/>
        <path id="Trazado_904957" data-name="Trazado 904957" d="M44.433,18.7v1.429H13V18.7A15.7,15.7,0,0,1,27.288,3.05,14.3,14.3,0,0,0,41.576,17.266h2.786c.043.471.071.943.071,1.429" transform="translate(5.574 1.33)" fill="#efad1b"/>
        <path id="Trazado_904958" data-name="Trazado 904958" d="M29.59,4.538l.512,7.494,2.76.74,1.662-3.653A15.8,15.8,0,0,0,29.59,4.538" transform="translate(12.688 1.968)" fill="#efad1b"/>
        <path id="Trazado_904959" data-name="Trazado 904959" d="M47.148,15H12.858A2.857,2.857,0,0,0,10,17.858v2.858H50.006V17.858A2.857,2.857,0,0,0,47.148,15" transform="translate(4.288 6.454)" fill="#fcea42"/>
        <path id="Trazado_904960" data-name="Trazado 904960" d="M28.362,13.859H22.646L20.562,4.478A2.857,2.857,0,0,1,23.351,1h4.306a2.857,2.857,0,0,1,2.789,3.478Z" transform="translate(8.787 0.451)" fill="#fcea42"/>
        <path id="Trazado_904961" data-name="Trazado 904961" d="M32.708,13l-2.76-.74.676-6.971A1.429,1.429,0,0,1,32.416,4.05l2.263.606a1.428,1.428,0,0,1,.93,1.972Z" transform="translate(12.841 1.737)" fill="#fcea42"/>
        <path id="Trazado_904962" data-name="Trazado 904962" d="M17.029,13l2.76-.74-.676-6.971A1.429,1.429,0,0,0,17.322,4.05l-2.263.606a1.428,1.428,0,0,0-.93,1.972Z" transform="translate(6.003 1.737)" fill="#fcea42"/>
        <path id="Trazado_904963" data-name="Trazado 904963" d="M50.006,17.858v2.858H10V17.858A2.866,2.866,0,0,1,12.858,15h1.429a2.866,2.866,0,0,0,2.858,2.858Z" transform="translate(4.288 6.454)" fill="#fdc741"/>
        <path id="Trazado_904964" data-name="Trazado 904964" d="M28.362,13.859H22.647L20.561,4.472A2.848,2.848,0,0,1,23.347,1h2.6a2.849,2.849,0,0,0-2.829,3.258L23.347,5.9a11.494,11.494,0,0,0,5.015,7.958" transform="translate(8.786 0.451)" fill="#fdc741"/>
        <path id="Trazado_904965" data-name="Trazado 904965" d="M18.445,12.617,17.03,13l-2.9-6.372a1.423,1.423,0,0,1,.929-1.972l2.257-.614a1.294,1.294,0,0,1,.7,0,2.926,2.926,0,0,0-1.229,2.386,3.181,3.181,0,0,0,.114.8Z" transform="translate(6.002 1.736)" fill="#fdc741"/>
        <path id="Trazado_904966" data-name="Trazado 904966" d="M35.294,5.016A2.9,2.9,0,0,0,32.708,7.2l-1.4,5.429L29.95,12.26l.672-6.972a1.439,1.439,0,0,1,1.8-1.243l2.257.614a1.457,1.457,0,0,1,.614.357" transform="translate(12.842 1.735)" fill="#fdc741"/>
        <path id="Trazado_904967" data-name="Trazado 904967" d="M41.145,63.576v5.715H24V53.574L31.144,45V35H34v7a20.754,20.754,0,0,1-4.558,12.988,5.3,5.3,0,0,0-1.157,3.3,5.269,5.269,0,0,0,5.287,5.287Z" transform="translate(10.291 15.03)" fill="#fdc741"/>
        <path id="Trazado_904968" data-name="Trazado 904968" d="M29.145,63.576v5.715H12V50.717l2.858-4.286V35h4.286v9.244a9.246,9.246,0,0,1-.972,4.143l-.914,1.8a9.259,9.259,0,0,0,8.273,13.388Z" transform="translate(5.145 15.03)" fill="#fdc741"/>
        <path id="Trazado_904969" data-name="Trazado 904969" d="M18.286,21.858v1.429A14.287,14.287,0,0,0,40.3,35.3,14.288,14.288,0,0,1,14,27.573V19H42.576v2.858Z" transform="translate(6.003 8.169)" fill="#edb88e"/>
        <rect id="Rectángulo_402352" data-name="Rectángulo 402352" width="17" height="6" transform="translate(17 72.749)" fill="#ef5350"/>
        <rect id="Rectángulo_402353" data-name="Rectángulo 402353" width="17" height="6" transform="translate(34 72.749)" fill="#ef5350"/>
        <path id="Trazado_904970" data-name="Trazado 904970" d="M33.573,56.715H24V51h4.3c-.014.143-.014.286-.014.429a5.269,5.269,0,0,0,5.287,5.287" transform="translate(10.291 21.89)" fill="#e53935"/>
        <path id="Trazado_904971" data-name="Trazado 904971" d="M25.531,56.715H12V51h4.986a9.236,9.236,0,0,0,8.544,5.715" transform="translate(5.145 21.89)" fill="#e53935"/>
        <path id="Trazado_904972" data-name="Trazado 904972" d="M38.28,45.286H54.6a7.134,7.134,0,0,1,13.082,0H64A2.858,2.858,0,1,0,64,51h3.683A7.134,7.134,0,0,1,54.6,51H38.28a2.858,2.858,0,0,1,0-5.715" transform="translate(15.188 17.602)" fill="#d0d8da"/>
        <path id="Trazado_904973" data-name="Trazado 904973" d="M11,48.547V45.858A2.857,2.857,0,0,0,8.144,43H3.858A2.857,2.857,0,0,0,1,45.858v2.689a6.766,6.766,0,0,0,.714,3.026A6.766,6.766,0,0,1,2.429,54.6v.43a13.925,13.925,0,0,1-.714,4.4A13.932,13.932,0,0,0,1,63.833v2.027H11V63.833a13.932,13.932,0,0,0-.714-4.4,13.925,13.925,0,0,1-.714-4.4V54.6a6.766,6.766,0,0,1,.714-3.026A6.766,6.766,0,0,0,11,48.547" transform="translate(0.429 18.46)" fill="#f9dbaf"/>
        <path id="Trazado_904974" data-name="Trazado 904974" d="M11,63.832v2.029H1V63.832a13.917,13.917,0,0,1,.714-4.4,13.917,13.917,0,0,0,.714-4.4V54.6a6.746,6.746,0,0,0-.714-3.029A6.746,6.746,0,0,1,1,48.544V45.858A2.866,2.866,0,0,1,3.858,43H5.829a2.841,2.841,0,0,0-1.6,2.558v2.758a7.232,7.232,0,0,0,.786,3.115A6.854,6.854,0,0,1,5.658,54.3v.429a15.227,15.227,0,0,1-.786,4.586c-.029.086-.043.171-.071.271A2.722,2.722,0,0,0,7.472,63h3.5c.014.271.029.543.029.829" transform="translate(0.429 18.46)" fill="#edb88e"/>
        <path id="Trazado_904975" data-name="Trazado 904975" d="M65.424,53.323a7.06,7.06,0,0,1-4.286,1.429,7.165,7.165,0,0,1-6.544-4.286H38.278a2.858,2.858,0,1,1,0-5.715H54.594a7.4,7.4,0,0,1,1.829-2.5,9.124,9.124,0,0,0-.171,1.786,9.291,9.291,0,0,0,9.173,9.287" transform="translate(15.188 18.138)" fill="#b8bebf"/>
        <path id="Trazado_904976" data-name="Trazado 904976" d="M50,48.547V45.858A2.857,2.857,0,0,0,47.144,43H42.858A2.857,2.857,0,0,0,40,45.858v2.689a6.766,6.766,0,0,0,.714,3.026,6.766,6.766,0,0,1,.714,3.026v.43a13.925,13.925,0,0,1-.714,4.4,13.932,13.932,0,0,0-.714,4.4v2.027H50V63.833a13.932,13.932,0,0,0-.714-4.4,13.925,13.925,0,0,1-.714-4.4V54.6a6.766,6.766,0,0,1,.714-3.026A6.766,6.766,0,0,0,50,48.547" transform="translate(17.151 18.46)" fill="#f9dbaf"/>
        <path id="Trazado_904977" data-name="Trazado 904977" d="M50,63.832v2.029H40V63.832a13.917,13.917,0,0,1,.714-4.4,13.917,13.917,0,0,0,.714-4.4V54.6a6.745,6.745,0,0,0-.714-3.029A6.745,6.745,0,0,1,40,48.544V45.858A2.866,2.866,0,0,1,42.858,43h1.972a2.841,2.841,0,0,0-1.6,2.558v2.758a7.232,7.232,0,0,0,.786,3.115,6.854,6.854,0,0,1,.643,2.872v.429a15.227,15.227,0,0,1-.786,4.586c-.029.086-.043.171-.071.271A2.722,2.722,0,0,0,46.472,63h3.5c.014.271.029.543.029.829" transform="translate(17.151 18.46)" fill="#edb88e"/>
        <path id="Trazado_904978" data-name="Trazado 904978" d="M28.783,31.707A1.429,1.429,0,0,0,27.5,29.151a4.984,4.984,0,0,1-4.436,0,1.429,1.429,0,1,0-1.279,2.556,7.853,7.853,0,0,0,6.994,0" transform="translate(9.004 12.457)" fill="#323232"/>
        <path id="Trazado_904979" data-name="Trazado 904979" d="M24.143,25.059a1.429,1.429,0,0,0,.64-2.708,7.865,7.865,0,0,0-6.992,0,1.429,1.429,0,0,0,1.277,2.558,4.978,4.978,0,0,1,4.438,0,1.433,1.433,0,0,0,.637.15" transform="translate(7.289 9.254)" fill="#323232"/>
        <path id="Trazado_904980" data-name="Trazado 904980" d="M27.068,24.909a4.984,4.984,0,0,1,4.436,0,1.43,1.43,0,0,0,1.279-2.558,7.869,7.869,0,0,0-6.994,0,1.43,1.43,0,0,0,1.279,2.558" transform="translate(10.719 9.254)" fill="#323232"/>
        <path id="Trazado_904981" data-name="Trazado 904981" d="M82.869,67.153H79.186a1.429,1.429,0,1,1,0-2.858h3.683a1.429,1.429,0,0,0,1.309-2,8.561,8.561,0,0,0-15.267-.856H67.467A4.264,4.264,0,0,0,64.3,60.009H60.009a4.264,4.264,0,0,0-3.172,1.429H53.468a4.248,4.248,0,0,0-2.582.887L50.007,61V51.436a9.994,9.994,0,0,1,8.8,5.264,1.429,1.429,0,0,0,2.515-1.357,12.845,12.845,0,0,0-11.317-6.764H43.3A15.7,15.7,0,0,0,50.007,35.72v-.144a7.157,7.157,0,0,0,5.715-7V24.289A4.292,4.292,0,0,0,51.436,20a17.03,17.03,0,0,0-2.6-9.053l.917-2.016a2.856,2.856,0,0,0-1.86-3.943l-2.263-.606a2.792,2.792,0,0,0-2.79.779,17.077,17.077,0,0,0-2.122-1.044A4.261,4.261,0,0,0,36.444,0H32.138a4.261,4.261,0,0,0-4.271,4.119,17.176,17.176,0,0,0-2.122,1.044,2.791,2.791,0,0,0-2.789-.779l-2.263.606a2.858,2.858,0,0,0-1.862,3.943l.917,2.016A17.03,17.03,0,0,0,17.145,20a4.292,4.292,0,0,0-4.286,4.286v4.286a7.157,7.157,0,0,0,5.715,7v.144a15.7,15.7,0,0,0,6.708,12.859H18.574A12.875,12.875,0,0,0,5.8,60.009H4.286A4.292,4.292,0,0,0,0,64.3v2.689a8.209,8.209,0,0,0,.866,3.665,5.385,5.385,0,0,1,.563,2.387v.43a12.507,12.507,0,0,1-.64,3.951A15.322,15.322,0,0,0,0,82.271V84.3a1.429,1.429,0,1,0,2.858,0V82.271A12.508,12.508,0,0,1,3.5,78.32a15.282,15.282,0,0,0,.789-4.854v-.43a8.227,8.227,0,0,0-.864-3.665,5.367,5.367,0,0,1-.564-2.387V64.3a1.43,1.43,0,0,1,1.429-1.429H8.573A1.43,1.43,0,0,1,10,64.3v2.689a5.385,5.385,0,0,1-.563,2.387,8.209,8.209,0,0,0-.866,3.665v.43a15.322,15.322,0,0,0,.789,4.854A12.507,12.507,0,0,1,10,82.271V84.3a1.429,1.429,0,1,0,2.858,0V82.271a15.282,15.282,0,0,0-.789-4.854,12.507,12.507,0,0,1-.64-3.951v-.43a5.367,5.367,0,0,1,.564-2.387c.1-.207.189-.423.274-.639h3.448V84.3a1.429,1.429,0,1,0,2.858,0v-10H32.862v2.858h-10a1.429,1.429,0,0,0,0,2.858h10V84.3a1.429,1.429,0,1,0,2.858,0V80.012H50.007V84.3a1.429,1.429,0,1,0,2.858,0V69.949a4.2,4.2,0,0,0,.6.061h2.846c.086.216.17.431.274.639a5.385,5.385,0,0,1,.563,2.387v.43a12.508,12.508,0,0,1-.64,3.951,15.322,15.322,0,0,0-.789,4.854V84.3a1.429,1.429,0,1,0,2.858,0V82.271a12.507,12.507,0,0,1,.64-3.951,15.282,15.282,0,0,0,.789-4.854v-.43a8.227,8.227,0,0,0-.864-3.665,5.368,5.368,0,0,1-.564-2.387V64.3a1.43,1.43,0,0,1,1.429-1.429H64.3A1.43,1.43,0,0,1,65.724,64.3v2.689a5.385,5.385,0,0,1-.563,2.387,8.209,8.209,0,0,0-.866,3.665v.43a15.322,15.322,0,0,0,.789,4.854,12.508,12.508,0,0,1,.64,3.951V84.3a1.429,1.429,0,1,0,2.858,0V82.271a15.282,15.282,0,0,0-.789-4.854,12.507,12.507,0,0,1-.64-3.951v-.43a5.367,5.367,0,0,1,.564-2.387c.1-.207.189-.423.274-.639h.92a8.561,8.561,0,0,0,15.267-.856,1.429,1.429,0,0,0-1.309-2m-48.579-.8-5.715-6.858V56.38a8.522,8.522,0,0,0,11.43,0v3.112ZM28.611,50.358a15.49,15.49,0,0,0,11.359,0,5.689,5.689,0,0,1-11.359,0m21.4-17.74V28.576h2.858a4.3,4.3,0,0,1-2.858,4.042M44.887,7.144l2.263.607-2.4,5.274-.42-.113ZM31.025,3.392a1.418,1.418,0,0,1,1.113-.534h4.306A1.43,1.43,0,0,1,37.838,4.6L36,12.859H32.579L30.745,4.6a1.418,1.418,0,0,1,.28-1.2m-7.33,3.752.559,5.768-.421.113-2.4-5.275Zm-2.458,7.078.494,1.087a1.429,1.429,0,0,0,1.67.789l2.76-.74a1.428,1.428,0,0,0,1.052-1.517l-.566-5.848a14.093,14.093,0,0,1,1.712-.944l1.679,7.55a1.428,1.428,0,0,0,1.394,1.119h5.715a1.431,1.431,0,0,0,1.4-1.119l1.677-7.55a14,14,0,0,1,1.713.944l-.567,5.848a1.428,1.428,0,0,0,1.053,1.517l2.759.74a1.429,1.429,0,0,0,1.67-.789l.494-1.087A14.158,14.158,0,0,1,48.579,20H20a14.181,14.181,0,0,1,1.234-5.781M15.717,28.576h2.858v4.042a4.3,4.3,0,0,1-2.858-4.042m5.715,7.144V28.576H42.864a1.429,1.429,0,0,0,0-2.858H15.717V24.289a1.43,1.43,0,0,1,1.429-1.429H51.436a1.43,1.43,0,0,1,1.429,1.429v1.429H48.579a1.428,1.428,0,0,0-1.429,1.429V35.72a12.859,12.859,0,0,1-25.718,0M20,54.294a1.428,1.428,0,0,0-1.429,1.429V61l-2.618,3.926a1.437,1.437,0,0,0-.24.793v1.429H12.849c0-.056.01-.113.01-.169V64.3A4.285,4.285,0,0,0,8.686,60.02a10.007,10.007,0,0,1,9.889-8.584h7.144v8.573a1.427,1.427,0,0,0,.331.914L32.862,69.1v2.34H18.574V66.157l2.618-3.926a1.425,1.425,0,0,0,.24-.793V55.723A1.428,1.428,0,0,0,20,54.294M35.72,77.154V74.3h10a1.429,1.429,0,1,0,0-2.858h-10V69.1l6.814-8.176a1.434,1.434,0,0,0,.33-.914V51.436H47.15v10a1.44,1.44,0,0,0,.24.793l1.862,2.793a4.338,4.338,0,0,0-.07.7,4.255,4.255,0,0,0,.826,2.508v8.923Zm17.748-10a1.429,1.429,0,1,1,0-2.858h2.255v2.689c0,.056.009.113.01.169Zm22.861,4.286A5.716,5.716,0,0,1,71.1,68.009a1.428,1.428,0,0,0-1.309-.856H68.572c0-.056.01-.113.01-.169V64.3h1.206a1.428,1.428,0,0,0,1.309-.856,5.7,5.7,0,0,1,9.006-2h-.916a4.286,4.286,0,1,0,0,8.573H80.1a5.7,5.7,0,0,1-3.773,1.429" transform="translate(0 0.022)" fill="#323232"/>
      </g>
    </g>
  </g>
</svg>
