<svg xmlns="http://www.w3.org/2000/svg" xmlns:xlink="http://www.w3.org/1999/xlink" width="108" height="108" viewBox="0 0 108 108">
  <defs>
    <filter id="Trazado_896985" x="0" y="0" width="108" height="108" filterUnits="userSpaceOnUse">
      <feOffset dy="3" input="SourceAlpha"/>
      <feGaussianBlur stdDeviation="3" result="blur"/>
      <feFlood flood-opacity="0.161"/>
      <feComposite operator="in" in2="blur"/>
      <feComposite in="SourceGraphic"/>
    </filter>
    <clipPath id="clip-path">
      <rect id="Rect치ngulo_402392" data-name="Rect치ngulo 402392" width="49.046" height="53.651" fill="none"/>
    </clipPath>
  </defs>
  <g id="Grupo_1110194" data-name="Grupo 1110194" transform="translate(-1170 -2601.5)">
    <g id="Grupo_1110183" data-name="Grupo 1110183" transform="translate(422.219 -1225.5)">
      <g id="Grupo_1098742" data-name="Grupo 1098742" transform="translate(-446.539 3444.258)">
        <g transform="matrix(1, 0, 0, 1, 1194.32, 382.74)" filter="url(#Trazado_896985)">
          <g id="Trazado_896985-2" data-name="Trazado 896985" transform="translate(9 6)" fill="#d6deec" opacity="0.859">
            <path d="M 44.99993896484375 88.5 C 39.12682723999023 88.5 33.4301872253418 87.35007476806641 28.06826400756836 85.08217620849609 C 22.88850212097168 82.89132690429688 18.23627662658691 79.75461578369141 14.2408390045166 75.75916290283203 C 10.24540138244629 71.76372528076172 7.108676433563232 67.11151123046875 4.917826652526855 61.9317512512207 C 2.649926424026489 56.56982421875 1.500001430511475 50.87317657470703 1.500001430511475 45.00006103515625 C 1.500001430511475 39.12682342529297 2.649926424026489 33.4301872253418 4.917826652526855 28.06826210021973 C 7.108676433563232 22.88850021362305 10.24540138244629 18.23628807067871 14.2408390045166 14.24083709716797 C 18.23628807067871 10.24540042877197 22.88850212097168 7.108675003051758 28.06826400756836 4.917825222015381 C 33.4301872253418 2.649924993515015 39.12682723999023 1.5 44.99993896484375 1.5 C 50.87305068969727 1.5 56.5697021484375 2.649924993515015 61.93162536621094 4.917825222015381 C 67.11138916015625 7.108675003051758 71.76360321044922 10.24540042877197 75.75904083251953 14.24083709716797 C 79.75448608398438 18.23627471923828 82.89120483398438 22.88850021362305 85.08205413818359 28.06826210021973 C 87.34995269775391 33.4301872253418 88.4998779296875 39.12682342529297 88.4998779296875 44.99993896484375 C 88.4998779296875 50.87317657470703 87.34995269775391 56.56982421875 85.08205413818359 61.9317512512207 C 82.89120483398438 67.11151123046875 79.75448608398438 71.76372528076172 75.75904083251953 75.75916290283203 C 71.76360321044922 79.75461578369141 67.11138916015625 82.89132690429688 61.93162536621094 85.08217620849609 C 56.5697021484375 87.35007476806641 50.87305068969727 88.5 44.99993896484375 88.5 Z" stroke="none"/>
            <path d="M 44.99993896484375 3 C 39.32865142822266 3 33.82860946655273 4.110054016113281 28.65258026123047 6.299331665039062 C 23.65162658691406 8.414558410644531 19.15966796875 11.44332885742188 15.30149841308594 15.30149841308594 C 11.44332122802734 19.15966796875 8.41455078125 23.65162658691406 6.299324035644531 28.65258407592773 C 4.110054016113281 33.82861328125 2.999992370605469 39.32865524291992 2.999992370605469 45.00005722045898 C 2.999992370605469 50.67134475708008 4.110054016113281 56.17138671875 6.299324035644531 61.347412109375 C 8.41455078125 66.34837341308594 11.44332122802734 70.84033203125 15.30149841308594 74.69850158691406 C 19.15966796875 78.55667114257812 23.65162658691406 81.58544158935547 28.65258026123047 83.70066833496094 C 33.82860946655273 85.88994598388672 39.32865142822266 87 44.99993896484375 87 C 50.67122650146484 87 56.17126846313477 85.88994598388672 61.34729766845703 83.70066833496094 C 66.34825134277344 81.58544158935547 70.8402099609375 78.55667114257812 74.69837951660156 74.69850158691406 C 78.55654907226562 70.84033203125 81.5853271484375 66.34837341308594 83.70055389404297 61.347412109375 C 85.88982391357422 56.17138671875 86.9998779296875 50.67134475708008 86.9998779296875 44.99994277954102 C 86.9998779296875 39.32865524291992 85.88982391357422 33.82861328125 83.70055389404297 28.65258407592773 C 81.5853271484375 23.65162658691406 78.55654907226562 19.15966796875 74.69837951660156 15.30149841308594 C 70.8402099609375 11.44332885742188 66.34825134277344 8.414558410644531 61.34729766845703 6.299331665039062 C 56.17126846313477 4.110054016113281 50.67122650146484 3 44.99993896484375 3 M 44.99993896484375 0 C 69.85272216796875 0 89.99988555908203 20.14715576171875 89.99988555908203 44.99994277954102 L 89.99988555908203 45.00005722045898 C 89.99988555908203 69.85284423828125 69.85272216796875 90 44.99993896484375 90 C 20.14715576171875 90 -7.62939453125e-06 69.85284423828125 -7.62939453125e-06 45.00005722045898 L -7.62939453125e-06 44.99994277954102 C -7.62939453125e-06 20.14715576171875 20.14715576171875 0 44.99993896484375 0 Z" stroke="none" fill="#fff"/>
          </g>
        </g>
        <g id="Rect치ngulo_400907" data-name="Rect치ngulo 400907" transform="translate(1203.32 388.742)" fill="none" stroke="#fff" stroke-width="3">
          <rect width="90" height="90" rx="45" stroke="none"/>
          <rect x="1.5" y="1.5" width="87" height="87" rx="43.5" fill="none"/>
        </g>
      </g>
    </g>
    <g id="Grupo_1110193" data-name="Grupo 1110193" transform="translate(1203.439 2625.5)">
      <g id="Grupo_1110192" data-name="Grupo 1110192" transform="translate(0 0)" clip-path="url(#clip-path)">
        <path id="Trazado_905045" data-name="Trazado 905045" d="M48.483,34.892l-10.461-4.6.306-.7a.943.943,0,1,0-1.728-.759l-.307.7-1-.438a.944.944,0,0,0-.76,1.728l1,.438-.452,1.03-.864-.38a.943.943,0,0,0-1.243.484L29.864,39.47c-.01.023-.008.046-.015.069l-7.206-3.349V29.131a11.8,11.8,0,0,0-1.18-5.142l1.179.417a.927.927,0,0,0,.315.055.944.944,0,0,0,.889-.628l3.863-10.907v0l2.9-8.181a.942.942,0,0,0-.574-1.2l-6.1-2.16a3.137,3.137,0,0,0-2.777.348,7.865,7.865,0,0,0-1.73-.867L18.3.459A7.868,7.868,0,0,0,10.74,1.722a.783.783,0,0,0-.062.074L9.332,1.32a.945.945,0,0,0-1.2.574L6.84,5.53a.945.945,0,0,0,.573,1.205l.247.087L6.993,8.7a7.909,7.909,0,0,0,1.834,8.187,8.441,8.441,0,0,0-4.583,1.8A8.633,8.633,0,0,0,.943,25.5v12.11A.943.943,0,0,0,0,38.557v3.773a.943.943,0,0,0,.943.944v7.548a.944.944,0,0,0,.944.943h4.9a2.92,2.92,0,0,0,2.735,1.888H21.7a.943.943,0,0,0,.944-.944V46.593L29.754,49.9a4.738,4.738,0,0,0,1.991.44c.084,0,.169,0,.254-.007a4.693,4.693,0,0,0,2.81-8.27.946.946,0,0,0,.237-.313l3.111-7.076a.944.944,0,0,0-.484-1.244l-.863-.379.452-1.03,10.461,4.6a.944.944,0,0,0,.76-1.728M26.247,11.4l-2.767-.98.658-1.858,2.767.98ZM17.671,2.237l1.127.4a6,6,0,0,1,1.153.569c-.012.032-.031.058-.042.09h0l-.557,1.573L12.89,2.58a5.977,5.977,0,0,1,4.782-.343M9.591,3.413,19.612,6.962a.944.944,0,0,0,1.2-.574l.872-2.463a1.26,1.26,0,0,1,.18-.325c.025-.024.058-.035.08-.063a.633.633,0,0,0,.046-.085,1.266,1.266,0,0,1,1.311-.3L28.515,5l-.98,2.766L23.878,6.472a.943.943,0,0,0-1.2.573l-1.288,3.637a.942.942,0,0,0,.574,1.2l3.656,1.3-3.234,9.131-1.611-.571a5.058,5.058,0,0,1-1.381-.749c-.245-.256-.5-.5-.77-.73a5.085,5.085,0,0,1-.944-5.012l1.851-5.227a.944.944,0,0,0-.574-1.205L8.933,5.271ZM8.772,9.333l.667-1.881,8,2.831L15.9,14.622a6.931,6.931,0,0,0-.35,3.131,6.016,6.016,0,0,1-1.986-.337l-1.125-.4A6.027,6.027,0,0,1,8.772,9.333M2.83,43.273H6.6v6.6H2.83Zm17.925,8.491H9.526a1.034,1.034,0,0,1-1.035-.983V42.329a.943.943,0,0,0-.943-.943H1.886V39.5H7.548a.944.944,0,0,0,.166-.014,5.982,5.982,0,0,0,4.018-2.606l.883,3.106a4.7,4.7,0,0,0,2.594,3.154l5.546,2.578Zm13.553-4.95a2.829,2.829,0,0,1-3.76,1.374L16,41.428A2.836,2.836,0,0,1,14.44,39.5l-4.1-14.411a.943.943,0,1,0-1.815.516l2.458,8.643c-.757,1.986-1.851,3.036-3.525,3.364H2.83V25.5a6.757,6.757,0,0,1,2.583-5.329,6.52,6.52,0,0,1,5.581-1.255,33.585,33.585,0,0,1,3.252.945A9.512,9.512,0,0,1,17.273,21.6a6.885,6.885,0,0,0,.815.768,9.877,9.877,0,0,1,2.667,6.765v4.055l-1.907-8.978A.943.943,0,1,0,17,24.6l2.507,11.8a.942.942,0,0,0,.525.659l12.9,6a2.829,2.829,0,0,1,1.374,3.76m-.99-5.825a.862.862,0,0,0-.032.148l-1.759-.817a1.029,1.029,0,0,0,.064-.09l2.731-6.213.864.38.863.379Z" transform="translate(0 0)"/>
      </g>
    </g>
  </g>
</svg>
