<svg xmlns="http://www.w3.org/2000/svg" xmlns:xlink="http://www.w3.org/1999/xlink" width="108" height="108" viewBox="0 0 108 108">
  <defs>
    <filter id="Trazado_896985" x="0" y="0" width="108" height="108" filterUnits="userSpaceOnUse">
      <feOffset dy="3" input="SourceAlpha"/>
      <feGaussianBlur stdDeviation="3" result="blur"/>
      <feFlood flood-opacity="0.161"/>
      <feComposite operator="in" in2="blur"/>
      <feComposite in="SourceGraphic"/>
    </filter>
    <clipPath id="clip-path">
      <rect id="Rect치ngulo_402389" data-name="Rect치ngulo 402389" width="49.715" height="47.28" transform="translate(0 0)" fill="none"/>
    </clipPath>
  </defs>
  <g id="Grupo_1110197" data-name="Grupo 1110197" transform="translate(-536.051 -2601.5)">
    <g id="Grupo_1110180" data-name="Grupo 1110180" transform="translate(-211.73 -1225.5)">
      <g id="Grupo_1098742" data-name="Grupo 1098742" transform="translate(-446.539 3444.258)">
        <g transform="matrix(1, 0, 0, 1, 1194.32, 382.74)" filter="url(#Trazado_896985)">
          <g id="Trazado_896985-2" data-name="Trazado 896985" transform="translate(9 6)" fill="#d6deec" opacity="0.859">
            <path d="M 44.99993896484375 88.5 C 39.12682723999023 88.5 33.4301872253418 87.35007476806641 28.06826400756836 85.08217620849609 C 22.88850212097168 82.89132690429688 18.23627662658691 79.75461578369141 14.2408390045166 75.75916290283203 C 10.24540138244629 71.76372528076172 7.108676433563232 67.11151123046875 4.917826652526855 61.9317512512207 C 2.649926424026489 56.56982421875 1.500001430511475 50.87317657470703 1.500001430511475 45.00006103515625 C 1.500001430511475 39.12682342529297 2.649926424026489 33.4301872253418 4.917826652526855 28.06826210021973 C 7.108676433563232 22.88850021362305 10.24540138244629 18.23628807067871 14.2408390045166 14.24083709716797 C 18.23628807067871 10.24540042877197 22.88850212097168 7.108675003051758 28.06826400756836 4.917825222015381 C 33.4301872253418 2.649924993515015 39.12682723999023 1.5 44.99993896484375 1.5 C 50.87305068969727 1.5 56.5697021484375 2.649924993515015 61.93162536621094 4.917825222015381 C 67.11138916015625 7.108675003051758 71.76360321044922 10.24540042877197 75.75904083251953 14.24083709716797 C 79.75448608398438 18.23627471923828 82.89120483398438 22.88850021362305 85.08205413818359 28.06826210021973 C 87.34995269775391 33.4301872253418 88.4998779296875 39.12682342529297 88.4998779296875 44.99993896484375 C 88.4998779296875 50.87317657470703 87.34995269775391 56.56982421875 85.08205413818359 61.9317512512207 C 82.89120483398438 67.11151123046875 79.75448608398438 71.76372528076172 75.75904083251953 75.75916290283203 C 71.76360321044922 79.75461578369141 67.11138916015625 82.89132690429688 61.93162536621094 85.08217620849609 C 56.5697021484375 87.35007476806641 50.87305068969727 88.5 44.99993896484375 88.5 Z" stroke="none"/>
            <path d="M 44.99993896484375 3 C 39.32865142822266 3 33.82860946655273 4.110054016113281 28.65258026123047 6.299331665039062 C 23.65162658691406 8.414558410644531 19.15966796875 11.44332885742188 15.30149841308594 15.30149841308594 C 11.44332122802734 19.15966796875 8.41455078125 23.65162658691406 6.299324035644531 28.65258407592773 C 4.110054016113281 33.82861328125 2.999992370605469 39.32865524291992 2.999992370605469 45.00005722045898 C 2.999992370605469 50.67134475708008 4.110054016113281 56.17138671875 6.299324035644531 61.347412109375 C 8.41455078125 66.34837341308594 11.44332122802734 70.84033203125 15.30149841308594 74.69850158691406 C 19.15966796875 78.55667114257812 23.65162658691406 81.58544158935547 28.65258026123047 83.70066833496094 C 33.82860946655273 85.88994598388672 39.32865142822266 87 44.99993896484375 87 C 50.67122650146484 87 56.17126846313477 85.88994598388672 61.34729766845703 83.70066833496094 C 66.34825134277344 81.58544158935547 70.8402099609375 78.55667114257812 74.69837951660156 74.69850158691406 C 78.55654907226562 70.84033203125 81.5853271484375 66.34837341308594 83.70055389404297 61.347412109375 C 85.88982391357422 56.17138671875 86.9998779296875 50.67134475708008 86.9998779296875 44.99994277954102 C 86.9998779296875 39.32865524291992 85.88982391357422 33.82861328125 83.70055389404297 28.65258407592773 C 81.5853271484375 23.65162658691406 78.55654907226562 19.15966796875 74.69837951660156 15.30149841308594 C 70.8402099609375 11.44332885742188 66.34825134277344 8.414558410644531 61.34729766845703 6.299331665039062 C 56.17126846313477 4.110054016113281 50.67122650146484 3 44.99993896484375 3 M 44.99993896484375 0 C 69.85272216796875 0 89.99988555908203 20.14715576171875 89.99988555908203 44.99994277954102 L 89.99988555908203 45.00005722045898 C 89.99988555908203 69.85284423828125 69.85272216796875 90 44.99993896484375 90 C 20.14715576171875 90 -7.62939453125e-06 69.85284423828125 -7.62939453125e-06 45.00005722045898 L -7.62939453125e-06 44.99994277954102 C -7.62939453125e-06 20.14715576171875 20.14715576171875 0 44.99993896484375 0 Z" stroke="none" fill="#fff"/>
          </g>
        </g>
        <g id="Rect치ngulo_400907" data-name="Rect치ngulo 400907" transform="translate(1203.32 388.742)" fill="none" stroke="#fff" stroke-width="3">
          <rect width="90" height="90" rx="45" stroke="none"/>
          <rect x="1.5" y="1.5" width="87" height="87" rx="43.5" fill="none"/>
        </g>
      </g>
    </g>
    <g id="Grupo_1110187" data-name="Grupo 1110187" transform="translate(565.193 2627.651)">
      <g id="Grupo_1110186" data-name="Grupo 1110186" clip-path="url(#clip-path)">
        <path id="Trazado_905037" data-name="Trazado 905037" d="M32.019,38.339c1.429-1.25,2.553-2.228,2.879-2.5a.134.134,0,0,1,.112-.031c.047,0,.112.079.17.151L39.086,40.5a2.647,2.647,0,0,0,1.819.92c.068,0,.136.007.2.007a2.663,2.663,0,0,0,2.014-4.4L41.61,35.268a.583.583,0,0,0,.051-.087c1.432-3.578.453-7.337-2.746-10.6l.412-.335c.1.073.2.147.31.22a.888.888,0,0,0,1.1-.075l4.133-3.76a.893.893,0,0,0,.267-.873.685.685,0,0,0-.066-.18l.83-.675c1.419-1.153,2.1-3.04,2.034-5.61a12.8,12.8,0,0,0-3.769-8.585l-.723-.738A12.826,12.826,0,0,0,34.016,0a6.188,6.188,0,0,0-4.892,2.048L24.742,7.721c-2.836-2.329-6.6-2.625-10.489-.755A37.966,37.966,0,0,0,1.376,20.12a6.432,6.432,0,0,0,1.2,7.936c.577.531,1.162,1.029,1.749,1.52A53.429,53.429,0,0,0,0,46.312a.888.888,0,0,0,.8.965l.082,0a.887.887,0,0,0,.883-.807A52.951,52.951,0,0,1,5.754,30.725a96.781,96.781,0,0,0,14.583,8.9l1.31.7c-.852.74-1.5,1.3-1.775,1.524a2.873,2.873,0,0,0-1.114,1.974,2.647,2.647,0,0,0,2.612,2.87,2.951,2.951,0,0,0,1.884-.73c.4-.325,1.494-1.274,3.513-3.036a4.325,4.325,0,0,0,.891.13l.136,0a4.23,4.23,0,0,0,3.722-2.195,4.286,4.286,0,0,0,.5-2.525m9.97.487a.888.888,0,0,1-.951.82.888.888,0,0,1-.607-.307l-3.882-4.508a1.945,1.945,0,0,0-1.358-.787,1.89,1.89,0,0,0-1.427.431c-.287.238-1.184,1.016-2.363,2.046a4.394,4.394,0,0,0-1.2-1.307c1.213-1.059,2.141-1.865,2.431-2.1a3.693,3.693,0,0,1,5.293.6l3.854,4.474a.875.875,0,0,1,.212.644M40.066,22.6a47.519,47.519,0,0,1-8.048-7.058l2.67-2.886c1.695,1.425,6.553,5.7,8.292,7.293ZM30.516,3.155a4.524,4.524,0,0,1,3.55-1.375,11.006,11.006,0,0,1,8.11,3.431l.723.738a11.022,11.022,0,0,1,3.26,7.391c.055,1.989-.409,3.4-1.378,4.184l-.96.78c-.733-.668-1.888-1.692-3.726-3.309-4.89-4.3-5.027-4.339-5.275-4.4a.891.891,0,0,0-.878.256h0l-3.773,4.08a.888.888,0,0,0-.014,1.19,48.482,48.482,0,0,0,7.681,7.051l-3.47,2.82c-2.961,2.449-5.52,1.122-7.144-.425-3.734-3.553-5.537-10.886-3.395-13.755ZM22.127,44.591a1.048,1.048,0,0,1-1.042.27.882.882,0,0,1-.551-.67A1.047,1.047,0,0,1,21,43.22c.333-.275,1.2-1.025,2.322-2,.549.3,1.1.6,1.662.9-1.195,1.041-2.448,2.129-2.857,2.465m7.834-4.584a2.485,2.485,0,0,1-2.247,1.275,2.557,2.557,0,0,1-1.206-.347c-1.827-1.013-3.606-1.956-5.339-2.877-6.463-3.43-12.043-6.392-17.4-11.309a4.666,4.666,0,0,1-.849-5.758A36.051,36.051,0,0,1,15.086,8.532c3.232-1.549,6.247-1.316,8.559.607l-1.233,1.6C19.476,14.664,21.97,23.02,26,26.85a7.341,7.341,0,0,0,5.042,2.275,6.965,6.965,0,0,0,4.452-1.763L37.536,25.7c.005.005.006.011.01.015,1.811,1.811,3.669,4.622,2.732,8.008l-.983-1.141a5.468,5.468,0,0,0-7.8-.838c-.31.257-1.344,1.155-2.676,2.318L14.3,21.529a.888.888,0,0,0-1.16,1.344L28.8,36.39a.929.929,0,0,0,.14.1,2.622,2.622,0,0,1,1.019,3.518"/>
        <path id="Trazado_905038" data-name="Trazado 905038" d="M48.827,29.525a.888.888,0,0,0-.888.888V35.95l-2.868-3.442a.888.888,0,0,0-1.558.714l1.573,9.443L34.758,41.076a.889.889,0,0,0-.7,1.56L37.5,45.505H31.96a.887.887,0,1,0,0,1.775h7.989a.887.887,0,0,0,.569-1.569l-2.873-2.394,8.383,1.289c.021,0,.04,0,.061,0s.048.013.074.013a.908.908,0,0,0,.146-.012c.013,0,.023-.011.036-.014a.852.852,0,0,0,.17-.065.824.824,0,0,0,.147-.069,2.669,2.669,0,0,0,.236-.239.911.911,0,0,0,.065-.142.887.887,0,0,0,.066-.178c0-.012.01-.022.012-.034a.932.932,0,0,0-.006-.14.949.949,0,0,0,0-.141L45.8,36.159l2.343,2.812a.888.888,0,0,0,1.57-.568v-7.99a.888.888,0,0,0-.888-.888"/>
        <path id="Trazado_905039" data-name="Trazado 905039" d="M48.827,40.178a.887.887,0,0,0-.888.888v4.439H42.613a.887.887,0,1,0,0,1.775h6.214a.888.888,0,0,0,.888-.888V41.066a.887.887,0,0,0-.888-.888"/>
      </g>
    </g>
  </g>
</svg>
