<svg xmlns="http://www.w3.org/2000/svg" xmlns:xlink="http://www.w3.org/1999/xlink" width="108" height="108" viewBox="0 0 108 108">
  <defs>
    <filter id="Trazado_896985" x="0" y="0" width="108" height="108" filterUnits="userSpaceOnUse">
      <feOffset dy="3" input="SourceAlpha"/>
      <feGaussianBlur stdDeviation="3" result="blur"/>
      <feFlood flood-opacity="0.161"/>
      <feComposite operator="in" in2="blur"/>
      <feComposite in="SourceGraphic"/>
    </filter>
    <clipPath id="clip-path">
      <rect id="Rect치ngulo_402390" data-name="Rect치ngulo 402390" width="47.316" height="48.575" transform="translate(0 0)" fill="none"/>
    </clipPath>
  </defs>
  <g id="Grupo_1110196" data-name="Grupo 1110196" transform="translate(-746 -2601.5)">
    <g id="Grupo_1110181" data-name="Grupo 1110181" transform="translate(-1.781 -1225.5)">
      <g id="Grupo_1098742" data-name="Grupo 1098742" transform="translate(-446.539 3444.258)">
        <g transform="matrix(1, 0, 0, 1, 1194.32, 382.74)" filter="url(#Trazado_896985)">
          <g id="Trazado_896985-2" data-name="Trazado 896985" transform="translate(9 6)" fill="#d6deec" opacity="0.859">
            <path d="M 44.99993896484375 88.5 C 39.12682723999023 88.5 33.4301872253418 87.35007476806641 28.06826400756836 85.08217620849609 C 22.88850212097168 82.89132690429688 18.23627662658691 79.75461578369141 14.2408390045166 75.75916290283203 C 10.24540138244629 71.76372528076172 7.108676433563232 67.11151123046875 4.917826652526855 61.9317512512207 C 2.649926424026489 56.56982421875 1.500001430511475 50.87317657470703 1.500001430511475 45.00006103515625 C 1.500001430511475 39.12682342529297 2.649926424026489 33.4301872253418 4.917826652526855 28.06826210021973 C 7.108676433563232 22.88850021362305 10.24540138244629 18.23628807067871 14.2408390045166 14.24083709716797 C 18.23628807067871 10.24540042877197 22.88850212097168 7.108675003051758 28.06826400756836 4.917825222015381 C 33.4301872253418 2.649924993515015 39.12682723999023 1.5 44.99993896484375 1.5 C 50.87305068969727 1.5 56.5697021484375 2.649924993515015 61.93162536621094 4.917825222015381 C 67.11138916015625 7.108675003051758 71.76360321044922 10.24540042877197 75.75904083251953 14.24083709716797 C 79.75448608398438 18.23627471923828 82.89120483398438 22.88850021362305 85.08205413818359 28.06826210021973 C 87.34995269775391 33.4301872253418 88.4998779296875 39.12682342529297 88.4998779296875 44.99993896484375 C 88.4998779296875 50.87317657470703 87.34995269775391 56.56982421875 85.08205413818359 61.9317512512207 C 82.89120483398438 67.11151123046875 79.75448608398438 71.76372528076172 75.75904083251953 75.75916290283203 C 71.76360321044922 79.75461578369141 67.11138916015625 82.89132690429688 61.93162536621094 85.08217620849609 C 56.5697021484375 87.35007476806641 50.87305068969727 88.5 44.99993896484375 88.5 Z" stroke="none"/>
            <path d="M 44.99993896484375 3 C 39.32865142822266 3 33.82860946655273 4.110054016113281 28.65258026123047 6.299331665039062 C 23.65162658691406 8.414558410644531 19.15966796875 11.44332885742188 15.30149841308594 15.30149841308594 C 11.44332122802734 19.15966796875 8.41455078125 23.65162658691406 6.299324035644531 28.65258407592773 C 4.110054016113281 33.82861328125 2.999992370605469 39.32865524291992 2.999992370605469 45.00005722045898 C 2.999992370605469 50.67134475708008 4.110054016113281 56.17138671875 6.299324035644531 61.347412109375 C 8.41455078125 66.34837341308594 11.44332122802734 70.84033203125 15.30149841308594 74.69850158691406 C 19.15966796875 78.55667114257812 23.65162658691406 81.58544158935547 28.65258026123047 83.70066833496094 C 33.82860946655273 85.88994598388672 39.32865142822266 87 44.99993896484375 87 C 50.67122650146484 87 56.17126846313477 85.88994598388672 61.34729766845703 83.70066833496094 C 66.34825134277344 81.58544158935547 70.8402099609375 78.55667114257812 74.69837951660156 74.69850158691406 C 78.55654907226562 70.84033203125 81.5853271484375 66.34837341308594 83.70055389404297 61.347412109375 C 85.88982391357422 56.17138671875 86.9998779296875 50.67134475708008 86.9998779296875 44.99994277954102 C 86.9998779296875 39.32865524291992 85.88982391357422 33.82861328125 83.70055389404297 28.65258407592773 C 81.5853271484375 23.65162658691406 78.55654907226562 19.15966796875 74.69837951660156 15.30149841308594 C 70.8402099609375 11.44332885742188 66.34825134277344 8.414558410644531 61.34729766845703 6.299331665039062 C 56.17126846313477 4.110054016113281 50.67122650146484 3 44.99993896484375 3 M 44.99993896484375 0 C 69.85272216796875 0 89.99988555908203 20.14715576171875 89.99988555908203 44.99994277954102 L 89.99988555908203 45.00005722045898 C 89.99988555908203 69.85284423828125 69.85272216796875 90 44.99993896484375 90 C 20.14715576171875 90 -7.62939453125e-06 69.85284423828125 -7.62939453125e-06 45.00005722045898 L -7.62939453125e-06 44.99994277954102 C -7.62939453125e-06 20.14715576171875 20.14715576171875 0 44.99993896484375 0 Z" stroke="none" fill="#fff"/>
          </g>
        </g>
        <g id="Rect치ngulo_400907" data-name="Rect치ngulo 400907" transform="translate(1203.32 388.742)" fill="none" stroke="#fff" stroke-width="3">
          <rect width="90" height="90" rx="45" stroke="none"/>
          <rect x="1.5" y="1.5" width="87" height="87" rx="43.5" fill="none"/>
        </g>
      </g>
    </g>
    <g id="Grupo_1110189" data-name="Grupo 1110189" transform="translate(776.342 2628.213)">
      <g id="Grupo_1110188" data-name="Grupo 1110188" clip-path="url(#clip-path)">
        <path id="Trazado_905040" data-name="Trazado 905040" d="M35.157,30.408l-6.448-6.449L28.142,17.7a1.522,1.522,0,0,0-.868-1.245,1.5,1.5,0,0,0-1.5.105q-1.332.889-2.568,1.9l-3.147-3.148c.292-.44.573-.893.827-1.364A3.06,3.06,0,0,0,20.5,10.52a.616.616,0,0,0-.053-.08c-.017-.017-.036-.03-.054-.046s-.027-.036-.043-.052L12.231,2.229A3.7,3.7,0,0,0,8.2,1.624,8.324,8.324,0,0,0,6.954,2.2L4.995.246A.839.839,0,0,0,3.808,1.433l1.72,1.72A12.135,12.135,0,0,0,3.154,5.527L1.433,3.807A.839.839,0,0,0,.246,4.994L2.2,6.953A8.279,8.279,0,0,0,1.625,8.2a3.7,3.7,0,0,0,.605,4.033l8.107,8.107c.012.012.028.021.04.033s.028.035.045.052a.861.861,0,0,0,.1.068,3.092,3.092,0,0,0,2,.751,2.977,2.977,0,0,0,1.428-.36c.47-.255.921-.535,1.358-.825l3.159,3.159q-1,1.227-1.9,2.557h0A1.528,1.528,0,0,0,17.7,28.142l6.255.566,5.427,5.427a1.535,1.535,0,0,1,.446,1l.581,8.464a2.636,2.636,0,0,0,5.26,0l.676-10.052a4.088,4.088,0,0,0-1.193-3.137M3.209,8.754A9.476,9.476,0,0,1,5.445,5.445a9.492,9.492,0,0,1,3.31-2.237,2.089,2.089,0,0,1,2.289.208l6.273,6.273a3.013,3.013,0,0,0-.387.152A14.835,14.835,0,0,0,9.8,16.962a2.822,2.822,0,0,0-.128.338L3.417,11.044a2.091,2.091,0,0,1-.208-2.29m9.94,10.653a1.32,1.32,0,0,1-1.831-1.727,13.026,13.026,0,0,1,6.347-6.329,1.308,1.308,0,0,1,1.748,1.8c-.177.326-.367.644-.564.956a1.909,1.909,0,0,0-2.058-.263,5.573,5.573,0,0,0-2.947,2.946,1.915,1.915,0,0,0,.259,2.053c-.31.2-.627.386-.954.564m2.212-1.673c-.059-.122.115-.772.858-1.516s1.391-.916,1.519-.856l4.195,4.2q-1.24,1.126-2.369,2.379Zm11.132.367.535,5.921-3,3.006-5.914-.535A31.836,31.836,0,0,1,26.493,18.1M34,43.484a.958.958,0,0,1-1.911,0l-.58-8.456a3.2,3.2,0,0,0-.934-2.081L25.526,27.9,27.9,25.525l6.07,6.07a2.418,2.418,0,0,1,.7,1.844Z"/>
        <path id="Trazado_905041" data-name="Trazado 905041" d="M9.27,12.256,6.157,9.143A.839.839,0,1,0,4.97,10.33l3.113,3.113A.839.839,0,1,0,9.27,12.256"/>
        <path id="Trazado_905042" data-name="Trazado 905042" d="M28.263,39.137a.84.84,0,1,0-1.629.408l1,4L22.164,41.36a.84.84,0,0,0-.944,1.332L24.9,46.9H19.613a.84.84,0,0,0,0,1.679h7.136a.839.839,0,0,0,.631-1.392l-2.595-2.966,3.751,1.5a.839.839,0,0,0,1.126-.984Z"/>
        <path id="Trazado_905043" data-name="Trazado 905043" d="M46.476,46.9H41.19l3.679-4.2a.84.84,0,0,0-.944-1.333l-5.471,2.189,1-4a.84.84,0,0,0-1.629-.407l-1.4,5.6a.841.841,0,0,0,1.127.984l3.75-1.5-2.6,2.966a.84.84,0,0,0,.631,1.393h7.136a.84.84,0,1,0,0-1.679"/>
      </g>
    </g>
  </g>
</svg>
