<svg xmlns="http://www.w3.org/2000/svg" xmlns:xlink="http://www.w3.org/1999/xlink" width="136" height="136" viewBox="0 0 136 136">
  <defs>
    <clipPath id="clip-path">
      <rect id="Rect치ngulo_402399" data-name="Rect치ngulo 402399" width="84.984" height="86.782" fill="none"/>
    </clipPath>
  </defs>
  <g id="Grupo_1110217" data-name="Grupo 1110217" transform="translate(2918 8973)">
    <g id="Grupo_1110214" data-name="Grupo 1110214" transform="translate(0 185)">
      <g id="Grupo_1110210" data-name="Grupo 1110210" transform="translate(0 183)">
        <g id="Grupo_1110206" data-name="Grupo 1110206" transform="translate(0 354)">
          <rect id="Rect치ngulo_402395" data-name="Rect치ngulo 402395" width="136" height="136" rx="68" transform="translate(-2918 -9695)" fill="#fecfb5"/>
        </g>
      </g>
    </g>
    <g id="Grupo_1110216" data-name="Grupo 1110216" transform="translate(-2887.361 -8947.2)">
      <g id="Grupo_1110215" data-name="Grupo 1110215" clip-path="url(#clip-path)">
        <path id="Trazado_905130" data-name="Trazado 905130" d="M78.216,49.113a21.833,21.833,0,0,1,1.3,30.27c-5.505,6.17-10.651,6.793-18.307,7.194-4.51.236-9.08.121-13.6.125L24.9,86.711H11.318a61,61,0,0,1-7.138-.076,4.918,4.918,0,0,1-2.76-1.269C.275,84.3.166,82.487.119,81.008-.058,75.412.1,69.757.107,64.154L.1,32.552.1,14.1A97.189,97.189,0,0,1,.176,4.042a4.435,4.435,0,0,1,1.3-2.652A4.469,4.469,0,0,1,4.593.128a56.36,56.36,0,0,1,5.977-.1H21.078L55.517.022c2.477,2.219,4.758,4.795,7.092,7.168,2.361,2.4,4.958,4.744,7.075,7.363a9.193,9.193,0,0,0,.081,2.229c7.219,10.427,9.109,19.83,8.451,32.332" transform="translate(0 0)" fill="#141625"/>
        <path id="Trazado_905131" data-name="Trazado 905131" d="M22.008,706.686c-.084-.017-.169-.034-.252-.055a2.142,2.142,0,0,1-1.448-.993c-.783-1.408-.826-7.2-.381-8.678l.636-.053c.369,2.6.064,5.382.174,8.018a6.484,6.484,0,0,1,1.27,1.761" transform="translate(-17.534 -622.09)" fill="#fff"/>
        <path id="Trazado_905132" data-name="Trazado 905132" d="M516.035,27.139c1.265.785,2.972,3.112,4.063,4.258,2.114,2.222,4.288,4.4,6.519,6.5-2.767-.035-5.535.062-8.3,0a5.825,5.825,0,0,1-1.306-.983c-1.678-1.8-.981-7.431-.975-9.776" transform="translate(-460.504 -24.226)" fill="#51e4cf"/>
        <path id="Trazado_905133" data-name="Trazado 905133" d="M430.048,458.153a18.554,18.554,0,0,1-3.105-4.354,19.99,19.99,0,0,1-1.177-15.323,19.062,19.062,0,0,1,9.477-11.153,18.153,18.153,0,0,1,14.192-.806l-.137.012c-1.731.129-3.494-.121-5.237-.054a18.664,18.664,0,0,0-13.388,6.454,20.055,20.055,0,0,0-4.569,14.426,17.227,17.227,0,0,0,1.179,5.2c.463,1.147,2.728,4.835,2.767,5.6" transform="translate(-379.163 -379.776)" fill="#fff"/>
        <path id="Trazado_905134" data-name="Trazado 905134" d="M648.751,156.322c7.219,10.427,9.109,19.83,8.451,32.332a19.861,19.861,0,0,0-8.583-4.922Z" transform="translate(-578.987 -139.54)" fill="#0dc6a2"/>
        <path id="Trazado_905135" data-name="Trazado 905135" d="M28.216,696.69c14.253.024,28.534.244,42.784-.026a23.228,23.228,0,0,0,10.318,9.791H43.083l-9.23.034a24.691,24.691,0,0,1-4.193-.018,6.485,6.485,0,0,0-1.27-1.761c-.11-2.636.194-5.418-.174-8.018" transform="translate(-25.187 -621.874)" fill="#51e4cf"/>
        <path id="Trazado_905136" data-name="Trazado 905136" d="M460.047,434.939c4.126,1.188,8.121,4.846,10.179,8.536a20.118,20.118,0,0,1,1.622,15.31,19.063,19.063,0,0,1-9.15,11.49,17.962,17.962,0,0,1-13.7,1.458c-2.48-.786-6.859-2.937-8.335-5.159-.039-.767-2.3-4.454-2.767-5.6a17.223,17.223,0,0,1-1.179-5.2,20.054,20.054,0,0,1,4.569-14.426,18.664,18.664,0,0,1,13.388-6.455c1.743-.067,3.507.182,5.237.054l.136-.012" transform="translate(-389.777 -388.199)" fill="#51e4cf"/>
        <path id="Trazado_905137" data-name="Trazado 905137" d="M477.47,467.413c.106-.012.213-.025.319-.035a13.085,13.085,0,0,1,9.351,3.167,14.808,14.808,0,0,1,5.29,10.2,15.171,15.171,0,0,1-3.488,11.117,14.341,14.341,0,0,1-10.237,4.949,13.745,13.745,0,0,1-9.287-2.914,15.582,15.582,0,0,1-5.8-10.3,14.607,14.607,0,0,1,3.168-10.745,15.17,15.17,0,0,1,10.687-5.447" transform="translate(-413.762 -417.163)" fill="#141625"/>
        <path id="Trazado_905138" data-name="Trazado 905138" d="M494.112,488.18A12.013,12.013,0,0,1,507.3,498.3a13.037,13.037,0,0,1-2.136,9.84,12.266,12.266,0,0,1-8.381,5.13,12.437,12.437,0,0,1-8.742-2.339,13.526,13.526,0,0,1-5.343-8.822,12.151,12.151,0,0,1,2.493-9.039,12.817,12.817,0,0,1,8.923-4.89" transform="translate(-430.781 -435.733)" fill="#fff"/>
        <path id="Trazado_905139" data-name="Trazado 905139" d="M517.561,538.336c1.63.892,3.258,3.115,4.4,4.6a47.355,47.355,0,0,1-5.216,5.3c-2.321,2.279-4.563,4.721-7.041,6.824-1.49-1.283-2.872-2.724-4.281-4.1a66.345,66.345,0,0,1-4.716-4.912c.938-.964,3.143-3.862,4.51-3.815,1.247.043,3.708,2.964,4.62,3.842,2.429-2.694,5.075-5.262,7.721-7.742" transform="translate(-446.957 -480.544)" fill="#141625"/>
        <path id="Trazado_905140" data-name="Trazado 905140" d="M537.51,560.821a12.164,12.164,0,0,1,1.778,2.2c-2.989,3.391-6.4,6.469-9.561,9.708l-4.532-4.467-2.2-2.057,2.03-2.1a40.723,40.723,0,0,0,4.7,4.332c2.69-2.417,5.214-5.077,7.789-7.619" transform="translate(-466.848 -500.615)" fill="#f85665"/>
        <path id="Trazado_905141" data-name="Trazado 905141" d="M19.093,88.68a3.855,3.855,0,0,1-1.058-.182c-.426-.859-.208-55.318-.265-61.174-.019-1.92-.418-6.136.214-7.83a2.862,2.862,0,0,1,.726-1.014c.617-.57,1.922-.581,2.724-.624,2.792-.149,5.655-.031,8.454-.026l15.858.025L60.3,17.842c2.91-.01,5.858-.122,8.763.031a2.728,2.728,0,0,1,.213,1.559c-.042,3.161-.808,8.313,1.613,10.768,1.711,1.735,4.256,1.544,6.492,1.526,1.993-.016,4-.049,5.992,0,.092,9.305-.013,18.606-.024,27.91-5.857-.652-11.228.439-15.938,4.207a20.948,20.948,0,0,0-3.8,3.945c-3.114-.01-19.94-.563-21.47.5l-.149.344a1.612,1.612,0,0,0,1.059.977c1.136.441,16.4.207,19.088.261a32.648,32.648,0,0,0-2.371,6.069c-2.429,0-15.776-.307-17.052.084a1.677,1.677,0,0,0-.471.323,1,1,0,0,0-.3.878,2.314,2.314,0,0,0,1.656.688,48.984,48.984,0,0,0,5.821.05l9.886.024A28.53,28.53,0,0,0,60.585,88.56l-30.456.013c-2.53,0-8.907-.38-11.037.107" transform="translate(-15.736 -15.873)" fill="#fff"/>
        <path id="Trazado_905142" data-name="Trazado 905142" d="M246.3,407.117l15.45-.03c2.926-.008,5.949-.171,8.864.075a1.536,1.536,0,0,1,.72.773,2.134,2.134,0,0,1-.6,1.287l-17.049-.052c-1.711,0-5.792.3-7.289-.106-.418-.114-.486-.352-.664-.7a1.934,1.934,0,0,1,.566-1.245" transform="translate(-219.354 -363.332)" fill="#1d1221"/>
        <path id="Trazado_905143" data-name="Trazado 905143" d="M246.562,257.782c7.312-.216,14.693-.018,22.014-.02,3.012,0,8.57-.321,11.238.1a1.168,1.168,0,0,1,.928.587,1.872,1.872,0,0,1-.36,1.352l-23.22.014c-2.661,0-7.572.318-9.99-.056-.471-.073-.6-.269-.881-.609a1.9,1.9,0,0,1,.27-1.365" transform="translate(-219.821 -229.985)" fill="#1d1221"/>
        <path id="Trazado_905144" data-name="Trazado 905144" d="M246,184.014c2.5-.115,5.046-.023,7.55-.027l14.78-.02c2.2,0,9.5-.3,11.048.1.466.121.573.319.808.7a1.688,1.688,0,0,1-.456,1.243c-2.292.155-4.686.031-6.987.032l-13.765.005-8.243,0a24,24,0,0,1-4.328-.1c-.473-.094-.566-.276-.816-.645a1.912,1.912,0,0,1,.41-1.281" transform="translate(-219.217 -164.122)" fill="#1d1221"/>
        <path id="Trazado_905145" data-name="Trazado 905145" d="M254.293,332.263l17.187.045c1.827,0,5.2-.289,6.881.09.475.107.561.332.77.717-.021.379.018.495-.283.765-1.092.98-7.5.509-9.132.493l-17.082-.037a67.4,67.4,0,0,1-6.778.018,1.944,1.944,0,0,1-1.462-.645.979.979,0,0,1,.362-.833,2.748,2.748,0,0,1,1.335-.631c1.229-.226,6.546.024,8.2.018" transform="translate(-218.156 -296.493)" fill="#1d1221"/>
        <path id="Trazado_905146" data-name="Trazado 905146" d="M73.415,308.537a58.95,58.95,0,0,1,10.7.012,1.294,1.294,0,0,1,1.005.7c.918,1.473.753,8.4.353,10.273a3.252,3.252,0,0,1-1.692,2.335,52.873,52.873,0,0,1-10.336-.031,1.733,1.733,0,0,1-1.177-.885c-1.1-1.783-.933-8.005-.5-10.1a3.145,3.145,0,0,1,1.652-2.3" transform="translate(-63.762 -275.202)" fill="#141625"/>
        <path id="Trazado_905147" data-name="Trazado 905147" d="M91.61,329.842a2.952,2.952,0,0,1,.336-2.109c1.591-.194,8.3-.461,9.513.134l.188.618c-2.7.151-5.869-.319-8.478.278-.708.162-.918.928-1.559,1.079" transform="translate(-81.741 -292.344)" fill="#fff"/>
        <path id="Trazado_905148" data-name="Trazado 905148" d="M90.621,337.729c.641-.151.851-.918,1.559-1.079,2.608-.6,5.781-.127,8.478-.278l-.032.189c-.265,1.632.39,6.966-.417,7.949-1.438.794-7.522.868-9.04.359-.154-.052-.287-.082-.353-.239-.632-1.512-.228-5.152-.2-6.9" transform="translate(-80.752 -300.23)" fill="#51e4cf"/>
        <path id="Trazado_905149" data-name="Trazado 905149" d="M103.786,340.236a2.158,2.158,0,0,1,.939.4c.3.286.264.442.292.816-.664,1.637-3.987,4.816-5.516,5.788-.718-.594-1.373-1.275-2.041-1.926a4.129,4.129,0,0,1-1.453-2.064c-.059-.4-.027-.441.227-.753a.963.963,0,0,1,.381-.063c1.355,0,2.215,1.163,3.038,2.067,1.394-1.41,2.684-2.9,4.132-4.261" transform="translate(-85.679 -303.71)" fill="#141625"/>
        <path id="Trazado_905150" data-name="Trazado 905150" d="M73.728,469.351a79.858,79.858,0,0,1,9.751-.069,2.9,2.9,0,0,1,1.56.673c1.478,1.381.827,8.689.8,10.888a4.941,4.941,0,0,1-2.129,1.979,45.848,45.848,0,0,1-9.868-.05,1.843,1.843,0,0,1-1.4-.944c-1.086-1.775-.967-8.585-.416-10.588a2.987,2.987,0,0,1,1.7-1.889" transform="translate(-63.93 -418.786)" fill="#141625"/>
        <path id="Trazado_905151" data-name="Trazado 905151" d="M92.052,491.982a12.923,12.923,0,0,1,.054-2.865.882.882,0,0,1,.358-.613c.868-.4,8.2-.273,9.273,0l.161.445c-1.056.671-6.06.33-7.618.4a10.073,10.073,0,0,0-1.229,1.545,7.865,7.865,0,0,1-1,1.1" transform="translate(-82.122 -435.832)" fill="#fff"/>
        <path id="Trazado_905152" data-name="Trazado 905152" d="M100.472,494.744a35.424,35.424,0,0,1,.019,8.26c-.569.625-1.8.669-2.613.712-1.708.089-5.632.36-7.1-.272-.676-1.38-.25-3.992-.194-5.5l.042-.159a7.875,7.875,0,0,0,1-1.1,10.061,10.061,0,0,1,1.229-1.545c1.558-.067,6.562.274,7.618-.4" transform="translate(-80.694 -441.631)" fill="#51e4cf"/>
        <path id="Trazado_905153" data-name="Trazado 905153" d="M96.351,507.157c1.206-1.2,2.69-3.483,4.28-4.044.507.069.485.057.813.449a1.987,1.987,0,0,1-.516,1.532c-.8,1.131-3.215,4.033-4.423,4.564-1.351-.129-2.92-2.252-3.774-3.3a5.186,5.186,0,0,1-.617-.949l.042-.159a7.873,7.873,0,0,0,1-1.1,12.5,12.5,0,0,1,3.2,3" transform="translate(-82.224 -449.102)" fill="#141625"/>
        <path id="Trazado_905154" data-name="Trazado 905154" d="M71.189,148.24a86.811,86.811,0,0,1,10.888,0,1.664,1.664,0,0,1,1.368.675c1.092,1.606.849,8.272.481,10.212a3.3,3.3,0,0,1-1.649,2.451,43.587,43.587,0,0,1-9.464.234,3.313,3.313,0,0,1-2.295-.917c-1-1.428-1.078-9.382-.691-11.164.166-.767.753-1.093,1.361-1.488" transform="translate(-62.139 -132.162)" fill="#141625"/>
        <path id="Trazado_905155" data-name="Trazado 905155" d="M88.7,167.354c3.388-.147,6.845.018,10.24.042.01,1.894.449,7.7-.265,9.07-.032.019-.064.039-.1.056-.055.029-.112.054-.167.082a2.771,2.771,0,0,1-.733.274c-1.113.216-7.835.284-8.528-.183-.978-1.827-.464-7.1-.449-9.341" transform="translate(-79.046 -149.334)" fill="#51e4cf"/>
        <path id="Trazado_905156" data-name="Trazado 905156" d="M102.029,179.543a4.041,4.041,0,0,1,.916.112c.259.275.43.361.416.777-.048,1.379-4.125,5.136-5.247,6.191-.966-.86-1.862-1.778-2.763-2.7a5.709,5.709,0,0,1-1.18-1.35,1.662,1.662,0,0,1-.15-1.4,1.067,1.067,0,0,1,.818-.136c1.4.255,2.393,1.741,3.244,2.771,1.284-1.456,2.6-2.869,3.948-4.265" transform="translate(-83.848 -160.268)" fill="#141625"/>
      </g>
    </g>
  </g>
</svg>
