<svg xmlns="http://www.w3.org/2000/svg" xmlns:xlink="http://www.w3.org/1999/xlink" width="190" height="108" viewBox="0 0 190 108">
  <defs>
    <clipPath id="clip-path">
      <rect id="Rectángulo_402361" data-name="Rectángulo 402361" width="78.518" height="78.526" fill="none"/>
    </clipPath>
  </defs>
  <g id="Grupo_1110144" data-name="Grupo 1110144" transform="translate(-1230 -807)">
    <rect id="Rectángulo_402362" data-name="Rectángulo 402362" width="190" height="108" transform="translate(1230 807)" fill="#95dcb3"/>
    <g id="Grupo_1110143" data-name="Grupo 1110143" transform="translate(1285.74 821.736)">
      <g id="Grupo_1110142" data-name="Grupo 1110142" transform="translate(0 0)" clip-path="url(#clip-path)">
        <path id="Trazado_904982" data-name="Trazado 904982" d="M45.494,66.414H1V42.859a7.851,7.851,0,0,1,7.852-7.852h28.79a7.851,7.851,0,0,1,7.852,7.852Z" transform="translate(0.309 10.804)" fill="#b8bebf"/>
        <path id="Trazado_904983" data-name="Trazado 904983" d="M45.494,57.162v9.252H1V42.859a7.858,7.858,0,0,1,7.852-7.852h28.79v4.92a12.4,12.4,0,0,0,1.309,5.549,12.393,12.393,0,0,1,1.309,5.549,6.232,6.232,0,0,0,1.819,4.41,6.154,6.154,0,0,0,3.416,1.727" transform="translate(0.309 10.804)" fill="#93999a"/>
        <rect id="Rectángulo_402355" data-name="Rectángulo 402355" width="5.235" height="20.938" transform="translate(51.037 53.662)" fill="#ef5350"/>
        <path id="Trazado_904984" data-name="Trazado 904984" d="M44.235,51.239V61.945H39V41.007h2.617V47.55a3.882,3.882,0,0,0,2.617,3.689" transform="translate(12.037 12.656)" fill="#e53935"/>
        <path id="Trazado_904985" data-name="Trazado 904985" d="M57.171,22.007l.072,2.442A2.619,2.619,0,0,0,60.2,26.967l2.422-.322-1.676,1.778a2.616,2.616,0,0,0,.313,3.872L63.2,33.782l-2.442.072a2.616,2.616,0,0,0-2.517,2.958l.319,2.424-1.777-1.678a2.616,2.616,0,0,0-3.872.314L51.424,39.81l-.072-2.441a2.618,2.618,0,0,0-2.959-2.519l-2.422.321,1.676-1.777a2.616,2.616,0,0,0-.313-3.872L45.4,28.033l2.442-.072A2.616,2.616,0,0,0,50.356,25l-.321-2.422,1.777,1.676a2.618,2.618,0,0,0,3.874-.313Z" transform="translate(14.011 6.792)" fill="#fffa48"/>
        <path id="Trazado_904986" data-name="Trazado 904986" d="M51.889,33.334a5.146,5.146,0,0,0-2.255-1.916,5.217,5.217,0,0,0,.092-1.477,5.315,5.315,0,0,0-.33-1.453,5.255,5.255,0,0,0,1.912-2.246,5.229,5.229,0,0,0,2.929-.233,5.149,5.149,0,0,0,2.255,1.917,5.216,5.216,0,0,0,.238,2.927,5.236,5.236,0,0,0-1.118.988,5.289,5.289,0,0,0-.794,1.259,5.263,5.263,0,0,0-2.929.233" transform="translate(15.245 8.027)" fill="#fcea42"/>
        <path id="Trazado_904987" data-name="Trazado 904987" d="M19.543,43.4h0A6.545,6.545,0,0,1,13,36.859V29.007H26.086v7.852A6.545,6.545,0,0,1,19.543,43.4" transform="translate(4.012 8.952)" fill="#f9dbaf"/>
        <path id="Trazado_904988" data-name="Trazado 904988" d="M26.086,35.445a28.456,28.456,0,0,1-8.336,1.911A6.495,6.495,0,0,0,24.9,40.628,6.546,6.546,0,0,1,13,36.859V29.007H26.086Z" transform="translate(4.012 8.952)" fill="#edb88e"/>
        <path id="Trazado_904989" data-name="Trazado 904989" d="M37.156,39.175h0a28.9,28.9,0,0,1-30.288,0A3.925,3.925,0,0,1,5,35.831V6.9A3.925,3.925,0,0,1,7.77,3.148a48.422,48.422,0,0,1,28.482,0A3.925,3.925,0,0,1,39.025,6.9V35.831a3.927,3.927,0,0,1-1.869,3.344" transform="translate(1.543 0.31)" fill="#ff7373"/>
        <rect id="Rectángulo_402356" data-name="Rectángulo 402356" width="28.79" height="18.321" transform="translate(9.16 58.896)" fill="#ade8f4"/>
        <path id="Trazado_904990" data-name="Trazado 904990" d="M35.79,60.711v2.617H7V45.007h7.852a15.7,15.7,0,0,0,15.7,15.7Z" transform="translate(2.16 13.89)" fill="#48cae4"/>
        <rect id="Rectángulo_402357" data-name="Rectángulo 402357" width="5.235" height="13.086" transform="translate(11.778 45.81)" fill="#48cae4"/>
        <rect id="Rectángulo_402358" data-name="Rectángulo 402358" width="5.235" height="13.086" transform="translate(30.099 45.81)" fill="#48cae4"/>
        <path id="Trazado_904991" data-name="Trazado 904991" d="M40.852,60.859H33V58.242a5.235,5.235,0,0,1,5.235-5.235h2.617Z" transform="translate(10.185 16.359)" fill="#b8bebf"/>
        <path id="Trazado_904992" data-name="Trazado 904992" d="M44.852,61.476H39.617A2.617,2.617,0,0,1,37,58.859V53.624a2.617,2.617,0,0,1,2.617-2.617h5.235a2.617,2.617,0,0,1,2.617,2.617v5.235a2.617,2.617,0,0,1-2.617,2.617" transform="translate(11.42 15.742)" fill="#f9dbaf"/>
        <path id="Trazado_904993" data-name="Trazado 904993" d="M46.787,35.678,44.17,31.145l6.321-2.138L51.8,31.273Z" transform="translate(13.632 8.952)" fill="#ef5350"/>
        <path id="Trazado_904994" data-name="Trazado 904994" d="M39.025,34.877v.8a3.944,3.944,0,0,1-1.871,3.35,28.926,28.926,0,0,1-30.282,0A3.944,3.944,0,0,1,5,35.675V6.742A3.917,3.917,0,0,1,7.774,3,44.755,44.755,0,0,1,14.16,1.507v9.815A23.558,23.558,0,0,0,37.716,34.877Z" transform="translate(1.543 0.464)" fill="#ef5350"/>
        <rect id="Rectángulo_402359" data-name="Rectángulo 402359" width="23.555" height="10.469" transform="translate(11.778 14.403)" fill="#48cae4"/>
        <path id="Trazado_904995" data-name="Trazado 904995" d="M16.9,21.476H9V11.007h4.07A23.438,23.438,0,0,0,16.9,21.476" transform="translate(2.778 3.397)" fill="#00b4d8"/>
        <path id="Trazado_904996" data-name="Trazado 904996" d="M10,11.007,20.469,21.476h9.16L19.16,11.007Z" transform="translate(3.086 3.396)" fill="#ade8f4"/>
        <path id="Trazado_904997" data-name="Trazado 904997" d="M12.77,11.007H10l3.43,3.429a23.341,23.341,0,0,1-.66-3.429" transform="translate(3.086 3.397)" fill="#48cae4"/>
        <path id="Trazado_904998" data-name="Trazado 904998" d="M51.8,30.94l-5.012,4.41L44.17,30.809l.824-.274a4.294,4.294,0,0,0,5.719.051l.589-.51Z" transform="translate(13.632 9.282)" fill="#e53935"/>
        <path id="Trazado_904999" data-name="Trazado 904999" d="M47.469,58.859a2.625,2.625,0,0,1-2.617,2.617H39.617A2.625,2.625,0,0,1,37,58.859V53.624a2.624,2.624,0,0,1,2.617-2.617v1.309a6.546,6.546,0,0,0,6.543,6.543Z" transform="translate(11.42 15.742)" fill="#edb88e"/>
        <path id="Trazado_905000" data-name="Trazado 905000" d="M28.235,45.476v2.617H23V35.007h2.617v7.852a2.625,2.625,0,0,0,2.617,2.617" transform="translate(7.099 10.804)" fill="#00b4d8"/>
        <path id="Trazado_905001" data-name="Trazado 905001" d="M14.235,45.476v2.617H9V35.007h2.617v7.852a2.625,2.625,0,0,0,2.617,2.617" transform="translate(2.778 10.804)" fill="#00b4d8"/>
        <rect id="Rectángulo_402360" data-name="Rectángulo 402360" width="15.704" height="7.852" transform="translate(15.704 69.366)" fill="#e9f1f2"/>
        <path id="Trazado_905002" data-name="Trazado 905002" d="M27.7,58.189v2.67H12V53.007h5.3a15.7,15.7,0,0,0,10.4,5.182" transform="translate(3.704 16.359)" fill="#d0d8da"/>
        <path id="Trazado_905003" data-name="Trazado 905003" d="M63.991,39.371,63.67,36.95a1.308,1.308,0,0,1,1.259-1.481l2.442-.071a1.31,1.31,0,0,0,.758-2.348l-1.938-1.485a1.307,1.307,0,0,1-.156-1.937l1.675-1.777a1.309,1.309,0,0,0-1.124-2.195l-2.422.319a1.3,1.3,0,0,1-1.018-.3,1.29,1.29,0,0,1-.461-.958l-.072-2.442a1.309,1.309,0,0,0-2.348-.758L58.78,23.458a1.31,1.31,0,0,1-1.937.156l-1.777-1.676a1.308,1.308,0,0,0-2.195,1.124l.321,2.421a1.31,1.31,0,0,1-1.259,1.48l-2.442.072a1.308,1.308,0,0,0-.758,2.346l1.938,1.487a1.242,1.242,0,0,1,.3.335l-3.461,1.171a1.308,1.308,0,0,0-.713,1.894l.615,1.067-4.356,2.9a1.31,1.31,0,0,0-.582,1.089V45.87H41.16a1.308,1.308,0,0,0-1.309,1.309V59.2a3.918,3.918,0,0,0-2.411,2.488A6.541,6.541,0,0,0,32,68.117v2.617a1.309,1.309,0,1,0,2.617,0V68.117a3.9,3.9,0,0,1,2.617-3.667v3.667a3.931,3.931,0,0,0,3.926,3.926H46.4a3.931,3.931,0,0,0,3.926-3.926V62.882A3.921,3.921,0,0,0,47.7,59.2V47.179A1.308,1.308,0,0,0,46.4,45.87H45.086V40.027L48.719,37.6l.691,1.2a1.309,1.309,0,0,0,.921.637,1.275,1.275,0,0,0,.212.017,1.306,1.306,0,0,0,.864-.326l2.48-2.179a1.274,1.274,0,0,1,.291.764l.072,2.442a1.309,1.309,0,0,0,2.348.758l1.485-1.939a1.3,1.3,0,0,1,.933-.508,1.28,1.28,0,0,1,1,.352L61.8,40.5a1.309,1.309,0,0,0,2.195-1.124M42.469,48.487h2.617V58.956H42.469ZM47.7,68.117A1.31,1.31,0,0,1,46.4,69.426H41.16a1.31,1.31,0,0,1-1.309-1.309V62.882a1.31,1.31,0,0,1,1.309-1.309H46.4A1.31,1.31,0,0,1,47.7,62.882ZM50.878,36.11l-1.022-1.768,3.794-1.284.234.408Zm11.1-1.877a3.917,3.917,0,0,0-.913,2.127,3.972,3.972,0,0,0-2.26-.5,3.924,3.924,0,0,0-2.147.858,3.89,3.89,0,0,0-.807-1.492l.569-.5a1.309,1.309,0,0,0,.27-1.637L55.38,30.821a1.309,1.309,0,0,0-1.553-.585l-.366.124a3.868,3.868,0,0,0-.53-.919,3.923,3.923,0,0,0,2.867-3.37,3.923,3.923,0,0,0,4.409-.356,3.927,3.927,0,0,0,3.37,2.867,3.927,3.927,0,0,0,.355,4.409,3.932,3.932,0,0,0-1.952,1.242" transform="translate(9.876 6.483)" fill="#323232"/>
        <path id="Trazado_905004" data-name="Trazado 905004" d="M8,11.316V21.785a1.308,1.308,0,0,0,1.309,1.309H32.864a1.308,1.308,0,0,0,1.309-1.309V16.55a1.309,1.309,0,0,0-2.617,0v3.926h-.767l-7.852-7.852h9.927a1.309,1.309,0,0,0,0-2.617H9.309A1.307,1.307,0,0,0,8,11.316m19.088,9.16H10.617v-7.31l4.309,4.309a1.309,1.309,0,0,0,1.85-1.852l-3-3h5.46Z" transform="translate(2.469 3.088)" fill="#323232"/>
        <path id="Trazado_905005" data-name="Trazado 905005" d="M19.617,7.316a1.309,1.309,0,1,0-1.309,1.309,1.309,1.309,0,0,0,1.309-1.309" transform="translate(5.247 1.853)" fill="#323232"/>
        <path id="Trazado_905006" data-name="Trazado 905006" d="M23.617,7.316a1.309,1.309,0,1,0-1.309,1.309,1.309,1.309,0,0,0,1.309-1.309" transform="translate(6.481 1.853)" fill="#323232"/>
        <path id="Trazado_905007" data-name="Trazado 905007" d="M27.617,7.316a1.309,1.309,0,1,0-1.309,1.309,1.309,1.309,0,0,0,1.309-1.309" transform="translate(7.716 1.853)" fill="#323232"/>
        <path id="Trazado_905008" data-name="Trazado 905008" d="M11.617,7.316a1.309,1.309,0,1,0-1.309,1.309,1.309,1.309,0,0,0,1.309-1.309" transform="translate(2.778 1.853)" fill="#323232"/>
        <path id="Trazado_905009" data-name="Trazado 905009" d="M15.617,7.316a1.309,1.309,0,1,0-1.309,1.309,1.309,1.309,0,0,0,1.309-1.309" transform="translate(4.012 1.853)" fill="#323232"/>
        <path id="Trazado_905010" data-name="Trazado 905010" d="M17,23.316a1.309,1.309,0,1,0,1.309-1.309A1.31,1.31,0,0,0,17,23.316" transform="translate(5.247 6.792)" fill="#323232"/>
        <path id="Trazado_905011" data-name="Trazado 905011" d="M21,23.316a1.309,1.309,0,1,0,1.309-1.309A1.31,1.31,0,0,0,21,23.316" transform="translate(6.481 6.792)" fill="#323232"/>
        <path id="Trazado_905012" data-name="Trazado 905012" d="M25,23.316a1.309,1.309,0,1,0,1.309-1.309A1.31,1.31,0,0,0,25,23.316" transform="translate(7.716 6.792)" fill="#323232"/>
        <path id="Trazado_905013" data-name="Trazado 905013" d="M9,23.316a1.309,1.309,0,1,0,1.309-1.309A1.31,1.31,0,0,0,9,23.316" transform="translate(2.778 6.792)" fill="#323232"/>
        <path id="Trazado_905014" data-name="Trazado 905014" d="M13,23.316a1.309,1.309,0,1,0,1.309-1.309A1.31,1.31,0,0,0,13,23.316" transform="translate(4.012 6.792)" fill="#323232"/>
        <path id="Trazado_905015" data-name="Trazado 905015" d="M37.95,57.589H36.642V47.12H37.95a6.551,6.551,0,0,1,6.543,6.543v11.2a1.309,1.309,0,0,0,2.617,0v-11.2a9.171,9.171,0,0,0-9.16-9.16H31.407v-.454A30.363,30.363,0,0,0,39.385,40.6a5.268,5.268,0,0,0,2.492-4.459V7.212a5.206,5.206,0,0,0-3.7-5,49.524,49.524,0,0,0-29.251,0,5.206,5.206,0,0,0-3.7,5V27.49a1.309,1.309,0,1,0,2.617,0V7.212A2.605,2.605,0,0,1,9.7,4.708a46.941,46.941,0,0,1,27.712,0,2.605,2.605,0,0,1,1.848,2.5v28.93a2.6,2.6,0,0,1-1.246,2.23,27.451,27.451,0,0,1-28.917,0,2.591,2.591,0,0,1-1.245-2.227V32.725a1.309,1.309,0,0,0-2.617,0v3.417A5.266,5.266,0,0,0,7.725,40.6,30.446,30.446,0,0,0,15.7,44.051V44.5H9.16A9.171,9.171,0,0,0,0,53.663V77.219a1.309,1.309,0,0,0,2.617,0V53.663A6.551,6.551,0,0,1,9.16,47.12h1.309v6.543a1.309,1.309,0,0,0,2.617,0V47.12H15.7V57.589H9.16A1.308,1.308,0,0,0,7.852,58.9V77.219a1.309,1.309,0,0,0,2.617,0V60.206H24.864a1.309,1.309,0,0,0,0-2.617H18.321V51.647a7.8,7.8,0,0,0,10.469,0V58.9A1.308,1.308,0,0,0,30.1,60.206h6.543V77.219a1.309,1.309,0,0,0,2.617,0V58.9a1.308,1.308,0,0,0-1.309-1.309m-14.4-6.543a5.241,5.241,0,0,1-5.235-5.235V44.628a28.843,28.843,0,0,0,10.469,0v1.183a5.241,5.241,0,0,1-5.235,5.235m7.852-3.926h2.617V57.589H31.407Z" transform="translate(0 -0.001)" fill="#323232"/>
        <path id="Trazado_905016" data-name="Trazado 905016" d="M12.617,49.316a1.309,1.309,0,1,0-1.309,1.309,1.309,1.309,0,0,0,1.309-1.309" transform="translate(3.086 14.816)" fill="#323232"/>
        <path id="Trazado_905017" data-name="Trazado 905017" d="M26.309,48.007a1.309,1.309,0,1,0,1.309,1.309,1.309,1.309,0,0,0-1.309-1.309" transform="translate(7.716 14.816)" fill="#323232"/>
        <path id="Trazado_905018" data-name="Trazado 905018" d="M28.012,52.007h-15.7A1.308,1.308,0,0,0,11,53.316v7.852a1.309,1.309,0,0,0,2.617,0V54.624H26.7v6.543a1.309,1.309,0,0,0,2.617,0V53.316a1.308,1.308,0,0,0-1.309-1.309" transform="translate(3.395 16.051)" fill="#323232"/>
        <path id="Trazado_905019" data-name="Trazado 905019" d="M53.309,37.007A1.308,1.308,0,0,0,52,38.316v2.617a1.309,1.309,0,1,0,2.617,0V38.316a1.308,1.308,0,0,0-1.309-1.309" transform="translate(16.049 11.421)" fill="#323232"/>
        <path id="Trazado_905020" data-name="Trazado 905020" d="M52.309,21.242a1.309,1.309,0,0,0,1.309-1.309V17.316a1.309,1.309,0,0,0-2.617,0v2.617a1.309,1.309,0,0,0,1.309,1.309" transform="translate(15.74 4.94)" fill="#323232"/>
        <path id="Trazado_905021" data-name="Trazado 905021" d="M46.309,25.167a1.309,1.309,0,0,0,1.85-1.852l-3.926-3.926a1.309,1.309,0,0,0-1.85,1.852Z" transform="translate(12.963 5.865)" fill="#323232"/>
        <path id="Trazado_905022" data-name="Trazado 905022" d="M57,21.316a1.309,1.309,0,1,0,1.309-1.309A1.31,1.31,0,0,0,57,21.316" transform="translate(17.592 6.174)" fill="#323232"/>
        <path id="Trazado_905023" data-name="Trazado 905023" d="M52.309,14.624A1.309,1.309,0,1,0,51,13.316a1.31,1.31,0,0,0,1.309,1.309" transform="translate(15.74 3.705)" fill="#323232"/>
        <path id="Trazado_905024" data-name="Trazado 905024" d="M44.309,12.624A1.309,1.309,0,1,0,43,11.316a1.31,1.31,0,0,0,1.309,1.309" transform="translate(13.271 3.088)" fill="#323232"/>
        <path id="Trazado_905025" data-name="Trazado 905025" d="M40.309,18.624A1.309,1.309,0,1,0,39,17.316a1.31,1.31,0,0,0,1.309,1.309" transform="translate(12.037 4.94)" fill="#323232"/>
        <path id="Trazado_905026" data-name="Trazado 905026" d="M53.309,43.007a1.309,1.309,0,1,0,1.309,1.309,1.309,1.309,0,0,0-1.309-1.309" transform="translate(16.049 13.273)" fill="#323232"/>
        <path id="Trazado_905027" data-name="Trazado 905027" d="M59.309,34.007a1.309,1.309,0,1,0,1.309,1.309,1.309,1.309,0,0,0-1.309-1.309" transform="translate(17.901 10.495)" fill="#323232"/>
        <path id="Trazado_905028" data-name="Trazado 905028" d="M57.309,39.007a1.309,1.309,0,1,0,1.309,1.309,1.309,1.309,0,0,0-1.309-1.309" transform="translate(17.284 12.038)" fill="#323232"/>
        <path id="Trazado_905029" data-name="Trazado 905029" d="M46.309,37.007a1.309,1.309,0,1,0,1.309,1.309,1.309,1.309,0,0,0-1.309-1.309" transform="translate(13.889 11.421)" fill="#323232"/>
        <path id="Trazado_905030" data-name="Trazado 905030" d="M40,26.316a1.309,1.309,0,1,0,1.309-1.309A1.31,1.31,0,0,0,40,26.316" transform="translate(12.345 7.717)" fill="#323232"/>
        <path id="Trazado_905031" data-name="Trazado 905031" d="M57.309,17.624A1.309,1.309,0,1,0,56,16.316a1.31,1.31,0,0,0,1.309,1.309" transform="translate(17.284 4.631)" fill="#323232"/>
        <path id="Trazado_905032" data-name="Trazado 905032" d="M47.755,21.135A1.309,1.309,0,0,0,50.1,19.964L47.48,14.729A1.309,1.309,0,0,0,45.138,15.9Z" transform="translate(13.888 4.322)" fill="#323232"/>
      </g>
    </g>
  </g>
</svg>
