<svg xmlns="http://www.w3.org/2000/svg" xmlns:xlink="http://www.w3.org/1999/xlink" width="136" height="136" viewBox="0 0 136 136">
  <defs>
    <clipPath id="clip-path">
      <rect id="Rect치ngulo_402400" data-name="Rect치ngulo 402400" width="89.728" height="88.856" fill="none"/>
    </clipPath>
  </defs>
  <g id="Grupo_1110220" data-name="Grupo 1110220" transform="translate(2918 9695)">
    <g id="Grupo_1110203" data-name="Grupo 1110203">
      <rect id="Rect치ngulo_402395" data-name="Rect치ngulo 402395" width="136" height="136" rx="68" transform="translate(-2918 -9695)" fill="#fecfb5"/>
    </g>
    <g id="Grupo_1110219" data-name="Grupo 1110219" transform="translate(-2887.877 -9670.538)">
      <g id="Grupo_1110218" data-name="Grupo 1110218" clip-path="url(#clip-path)">
        <path id="Trazado_905157" data-name="Trazado 905157" d="M.2.091c7.688-.205,15.445,0,23.14,0L69.756.1c.3,5.5.064,11.135.077,16.648,1.274-1.242,2.549-2.482,3.852-3.7,1.9,1.483,11.229,10.589,12.125,12.1a49.33,49.33,0,0,1-5.2,5.348l-9.843,9.914c3.761,3.745,7.43,7.6,11.175,11.359,1.913,1.922,6.51,6,7.767,8.119a1.191,1.191,0,0,1-.239,1.041c-1.9.811-7.251.351-9.483.338L69.9,61.259c.005,3.214.384,26.442-.31,27.346-1.233.492-44.472.107-50.173.117l-11.707.046c-1.867.012-3.768.132-5.63.042a2.273,2.273,0,0,1-1.8-.672c-.5-1.091-.159-11.009-.16-12.877L.09,24.354.079,8.524C.082,5.746-.078,2.847.2.091" transform="translate(0 0)" fill="#253149"/>
        <path id="Trazado_905158" data-name="Trazado 905158" d="M266.979,572.907c.605.543,1.669,1.275,1.729,2.122l-.609.232a2.631,2.631,0,0,1-1.784.2c-.189-.7.411-1.862.665-2.549" transform="translate(-236.019 -507.803)" fill="#fff"/>
        <path id="Trazado_905159" data-name="Trazado 905159" d="M609.01,140.554l1.325,1.192c-1.617,1.759-3.246,3.486-4.952,5.162l-1.352-1.365c1.61-1.7,3.318-3.333,4.979-4.989" transform="translate(-535.39 -124.582)" fill="#fff"/>
        <path id="Trazado_905160" data-name="Trazado 905160" d="M280.27,485.273a27.839,27.839,0,0,1,2.973,2.782c2.195,2.135,4.347,4.358,6.68,6.34-1.224.471-2.516.814-3.769,1.2l-4.329,1.381L278,492.685c.721-2.481,1.508-4.944,2.272-7.412" transform="translate(-246.407 -430.128)" fill="#fff"/>
        <path id="Trazado_905161" data-name="Trazado 905161" d="M620.878,151.047c2.812,2.556,5.455,5.316,8.138,8.008-1.691,1.663-3.349,3.394-5.1,4.989-2.67-2.6-5.4-5.16-7.988-7.835,1.706-1.675,3.335-3.4,4.952-5.162" transform="translate(-545.933 -133.882)" fill="#ee984c"/>
        <path id="Trazado_905162" data-name="Trazado 905162" d="M342.67,197.7l1.483,1.372c-5.82,6.438-12.287,12.412-18.548,18.419-4.416,4.236-8.705,8.606-13.092,12.874l-1.5-1.4c3.249-3.435,6.711-6.68,10.092-9.984,7.22-7.054,14.513-14.059,21.564-21.281" transform="translate(-275.67 -175.231)" fill="#fff"/>
        <path id="Trazado_905163" data-name="Trazado 905163" d="M475.938,369.549c1.459.793,15.085,15.156,17.13,17.221l-16.8-.058-17.349.033Z" transform="translate(-406.766 -327.554)" fill="#ee6253"/>
        <path id="Trazado_905164" data-name="Trazado 905164" d="M355.847,209.773l7.9,7.852-31.295,31.484c-2.668-2.776-5.445-5.4-8.246-8.042,4.387-4.267,8.677-8.638,13.092-12.874,6.261-6.007,12.728-11.981,18.548-18.419" transform="translate(-287.364 -185.935)" fill="#ee984c"/>
        <path id="Trazado_905165" data-name="Trazado 905165" d="M19.115,18.312l65.679.066.056,16.616L57.673,61.788c-.883.871-6.22,6.47-6.8,6.737a5.479,5.479,0,0,1-1,.2c-2.421,4.283-3.667,12.231-5.513,17.109-1.04,2.748-3.052,5.111-4.277,7.807,1.858-1.91,3.468-4.206,5.231-6.223,3.084-.944,15.176-4.208,17.1-5.479,1.614-1.068,3.085-3.012,4.456-4.41l13.632-.044,4.317,0,.019,25.521L19.122,103l0-6.107Z" transform="translate(-16.943 -16.231)" fill="#fff"/>
        <path id="Trazado_905166" data-name="Trazado 905166" d="M84.335,284.373c2.079.029,13.01-.238,13.91.4l.08.954c-4.508-.036-9.235.3-13.716-.083a2.051,2.051,0,0,1-.275-1.27" transform="translate(-74.751 -252.03)" fill="#ee6253"/>
        <path id="Trazado_905167" data-name="Trazado 905167" d="M281.1,216.953l.216-.005c2.024-.028,14.41-.313,15.35.105a2.689,2.689,0,0,1,.429.41,2,2,0,0,1-.244,1.327c-2.685.278-5.571.077-8.283.08-2.194,0-4.544.186-6.715-.029a1.1,1.1,0,0,1-.943-.517,2.256,2.256,0,0,1,.19-1.371" transform="translate(-248.952 -192.187)" fill="#253149"/>
        <path id="Trazado_905168" data-name="Trazado 905168" d="M86.078,499.573c1.91-1.994,9.106-9.738,10.921-10.843.241.311.373.387.321.8a2.953,2.953,0,0,1-.763,1.361c-1.182,1.42-2.643,2.652-3.934,3.979-2.172,2.231-4.286,4.531-6.388,6.827a87.3,87.3,0,0,0-7.334-7.756l.928-.827c2.195,2.053,4.218,4.243,6.25,6.456" transform="translate(-69.934 -433.192)" fill="#ee6253"/>
        <path id="Trazado_905169" data-name="Trazado 905169" d="M83.2,465.11c1.971-2.007,5.522-6.183,7.628-7.635.566.119.9.6,1.281,1.007-2.988,3.034-5.917,6.147-8.83,9.254-1.569-1.359-3.006-2.946-4.475-4.417l-2.195,2.1-.928.827a7.511,7.511,0,0,1-.413-.658c.484-1.5,2.842-3.241,4.018-4.343,1.271,1.328,2.579,2.605,3.913,3.869" transform="translate(-66.716 -405.488)" fill="#253149"/>
        <path id="Trazado_905170" data-name="Trazado 905170" d="M90.966,298.8c.487.378.945.806,1.411,1.211-3.2,3.063-6.171,6.42-9.261,9.6l-4.4-4.389-2.172,2.258-1.027.9a3.188,3.188,0,0,1-.38-.6c.589-1.629,2.764-3.242,4.018-4.429,1.37,1.194,2.636,2.474,3.906,3.772,2.579-2.825,5.322-5.5,7.907-8.319" transform="translate(-66.597 -264.848)" fill="#253149"/>
        <path id="Trazado_905171" data-name="Trazado 905171" d="M85.552,339.482c1.306-1.417,10.883-11.776,11.64-12.027a1.79,1.79,0,0,1,.778.753c-.094.779-10.853,11.714-12.259,13.42-1.9-2.192-5.109-6.276-7.227-7.856l1.027-.9c1.833,2.348,4.116,4.329,6.042,6.607" transform="translate(-69.564 -290.244)" fill="#ee6253"/>
        <path id="Trazado_905172" data-name="Trazado 905172" d="M292.635,166.389c2.639-.008,5.281.044,7.92-.007a38.918,38.918,0,0,1,5.53-.048,3.211,3.211,0,0,1,1.573.642l.055.384c-.039.047-.076.1-.118.142a3.921,3.921,0,0,1-2.2.819,29.531,29.531,0,0,1-3-.045l-7.8-.01c-2.574-.02-13.424.522-14.919-.4-.276-.17-.241-.256-.313-.568l.34-.484c1.285-.732,10.933-.409,12.931-.426" transform="translate(-247.618 -147.346)" fill="#253149"/>
        <path id="Trazado_905173" data-name="Trazado 905173" d="M280.945,116.378l18.471,0c1.948-.009,6.464-.335,8.035.041.457.11.569.313.783.7a1.655,1.655,0,0,1-.425,1.162c-3.488-.1-25.644.375-27-.142-.377-.144-.371-.311-.5-.66a1.674,1.674,0,0,1,.638-1.108" transform="translate(-248.453 -103.032)" fill="#253149"/>
        <path id="Trazado_905174" data-name="Trazado 905174" d="M80.289,81.182c2.4.005,10.02-.469,11.784.521A4.865,4.865,0,0,1,94,84.615c.646,2.41.67,10.61-.633,12.75a3.9,3.9,0,0,1-2.788,1.775c-2.737,0-10.332.693-12.356-.715a3.969,3.969,0,0,1-1.708-2.511c-.366-2.194-.6-11.635.587-13.157a4.537,4.537,0,0,1,3.192-1.575" transform="translate(-67.553 -71.86)" fill="#253149"/>
        <path id="Trazado_905175" data-name="Trazado 905175" d="M94.938,98.643c3.045-.416,8.8-.032,12.164.036-2.283,2.723-4.995,5.236-7.467,7.8-.355-.379-.71-.768-1.091-1.12a2.783,2.783,0,0,0-2.07-.857c-.194.239-.258.253-.229.562.15,1.636,2.341,3.207,3.486,4.21,1.438-1.377,2.788-2.848,4.154-4.3l4.027-4.218c-.005,2.269.441,9.221-.368,10.9a4.5,4.5,0,0,1-2.672,1.077c-2.111.228-8.854.472-10.39-.807-.432-.359-.533-1.506-.561-2.043-.084-1.6-.154-8.648.148-9.849a3.225,3.225,0,0,1,.871-1.394" transform="translate(-83.182 -87.264)" fill="#46d2be"/>
      </g>
    </g>
  </g>
</svg>
