<svg xmlns="http://www.w3.org/2000/svg" xmlns:xlink="http://www.w3.org/1999/xlink" width="136" height="136" viewBox="0 0 136 136">
  <defs>
    <clipPath id="clip-path">
      <rect id="Rect치ngulo_402396" data-name="Rect치ngulo 402396" width="96.706" height="93.466" fill="none"/>
    </clipPath>
  </defs>
  <g id="Grupo_1110205" data-name="Grupo 1110205" transform="translate(2918 9695)">
    <rect id="Rect치ngulo_402395" data-name="Rect치ngulo 402395" width="136" height="136" rx="68" transform="translate(-2918 -9695)" fill="#fecfb5"/>
    <g id="Grupo_1110202" data-name="Grupo 1110202" transform="translate(-2894.266 -9672.2)">
      <g id="Grupo_1110201" data-name="Grupo 1110201" clip-path="url(#clip-path)">
        <path id="Trazado_905070" data-name="Trazado 905070" d="M4.075.2a54.662,54.662,0,0,1,7.71-.112l15.1.01L54.858.085c5.075-.007,10.2-.157,15.265.022A6.654,6.654,0,0,1,73.1.739,6.067,6.067,0,0,1,76.2,4.47a9.827,9.827,0,0,1,.416,2.585c.2,4.956-.079,10-.065,14.968.016,5.674.325,11.461.068,17.124a2.042,2.042,0,0,1-.244.929c.3.072.594.152.888.246A28.3,28.3,0,0,1,93.772,54.407a27.424,27.424,0,0,1,1.652,20.572c-1.315,3.955-5.167,10.77-8.943,12.66-.372.8-1.962,1.676-2.713,2.11A27.172,27.172,0,0,1,73.543,93.3a68.329,68.329,0,0,1-9.163-.019c-3.24-.076-6.49-.034-9.732-.038l-30.562.009c-3.936.008-14.771.5-17.934-.4a8.166,8.166,0,0,1-5-3.939A7.785,7.785,0,0,1,.17,85.477c-.139-2.6-.037-5.248-.037-7.854L.125,62.841.115,20.219c0-2.738-.388-14.318.254-16.3C1.018,1.92,2.247,1.091,4.075.2" transform="translate(0 0)" fill="#1d1221"/>
        <path id="Trazado_905071" data-name="Trazado 905071" d="M25.1,685.128c2.226-.106,4.47-.045,6.7-.033-.178.906-1.624,2.659-2.077,3.678a7,7,0,0,0,.477,6.369,10.7,10.7,0,0,1,1.44,2.043c.024.069.045.139.068.208l-2.787.014c-2.022.048-3.968.172-5.8-.834a6.216,6.216,0,0,1-3.038-3.785,5.887,5.887,0,0,1,.676-4.571,6.808,6.808,0,0,1,4.345-3.088" transform="translate(-17.595 -606.306)" fill="#fff"/>
        <path id="Trazado_905072" data-name="Trazado 905072" d="M397.64,405.219a25.041,25.041,0,0,1-9.944-28.741A25.8,25.8,0,0,1,400.673,361.8a23.978,23.978,0,0,1,18.495-1.1c3.263,1.139,9.349,4.441,10.866,7.567-.374.01-2.278-1.707-2.766-2.034-1.951-1.31-4.727-3.129-7.074-3.486-2.085-1.584-8.449-1.457-11.07-1.1a23.243,23.243,0,0,0-15.54,9.209,24.284,24.284,0,0,0-4.685,17.847,25.3,25.3,0,0,0,3.868,10.269,15.543,15.543,0,0,1,1.77,2.514,22.139,22.139,0,0,1,3.2,3.516Z" transform="translate(-341.999 -318.037)" fill="#fff"/>
        <path id="Trazado_905073" data-name="Trazado 905073" d="M16.6,96.137c.778-1.476.351-11.314.351-13.447l.034-41.367c.005-3.7.034-7.4-.005-11.106-.024-2.393-.189-4.884-.039-7.267a5.684,5.684,0,0,1,.746-2.7,2.806,2.806,0,0,1,1.841-1.306c1.548-.353,3.693-.033,5.293-.03L37.271,18.9l31.9-.009c5.22,0,10.52-.2,15.732.019a4.618,4.618,0,0,1,2.485.634,1.435,1.435,0,0,1,.686,1.1,1.372,1.372,0,0,1-.147.078c-1.144.445-10.03-.015-12.091-.042-12.814-.164-25.647-.025-38.464-.04l-10.913-.016a33.829,33.829,0,0,0-5.335.076,2.4,2.4,0,0,0-1.71,1.344A5.448,5.448,0,0,0,19,24.271c-.293,6.185-.005,12.492-.013,18.69l0,38.837c.005,2.1.44,11.1-.231,12.558A6.166,6.166,0,0,1,16.6,96.137" transform="translate(-14.696 -16.621)" fill="#fff"/>
        <path id="Trazado_905074" data-name="Trazado 905074" d="M149.318,685.456c.665-.027,1.325-.013,1.99,0,.746.868,2.556,3.425,2.611,4.557l-14.844.03c-2.991-.017-6.071-.185-9.051,0a4.421,4.421,0,0,0-1.886.429c-.375.215-.375.288-.49.7a1.726,1.726,0,0,0,1.807,1.077c2.708.188,5.57-.029,8.3-.032l18.128-.019c.589.235,7.333,5.087,7.689,5.529l-3.687.024-22.839-.024c-3.415.012-8.153.425-11.442-.064a6.878,6.878,0,0,1-3.627-1.636,6.006,6.006,0,0,1-2.048-4.2,5.826,5.826,0,0,1,1.684-4.236,6.79,6.79,0,0,1,3.509-1.917c2.475-.483,5.377-.112,7.912-.114Z" transform="translate(-106.138 -606.634)" fill="#fff"/>
        <path id="Trazado_905075" data-name="Trazado 905075" d="M482.635,388.911c2.346.357,5.122,2.176,7.074,3.486.487.327,2.391,2.044,2.766,2.034,2.7,1.737,5.12,7.919,5.811,11.087a24.62,24.62,0,0,1-18.838,29.527c-7.254,1.533-12.987-.263-19.367-3.664l.092-.214a22.138,22.138,0,0,0-3.2-3.516,1.373,1.373,0,0,1,.725-.058,19.548,19.548,0,0,1,2.535,1.1,18.468,18.468,0,0,0,5.154,1.158,21.952,21.952,0,0,0,24.5-20.085c.1-1.145.285-2.505-.479-3.417a2.168,2.168,0,0,0,1.063-2.1,3.779,3.779,0,0,0-1.763-2.569c.327-.182.3-.2.427-.558-.427-3.944-3.664-9.47-6.5-12.211" transform="translate(-404.44 -344.199)" fill="#f85665"/>
        <path id="Trazado_905076" data-name="Trazado 905076" d="M411.88,417.434a15.53,15.53,0,0,0-1.77-2.514,25.3,25.3,0,0,1-3.868-10.269,24.283,24.283,0,0,1,4.685-17.847,23.242,23.242,0,0,1,15.54-9.209c2.621-.357,8.985-.485,11.07,1.1,2.839,2.741,6.076,8.268,6.5,12.211-.126.358-.1.376-.427.558a3.778,3.778,0,0,1,1.762,2.569,2.168,2.168,0,0,1-1.063,2.1c.765.912.579,2.272.479,3.417a21.952,21.952,0,0,1-24.5,20.085,18.466,18.466,0,0,1-5.154-1.158,19.539,19.539,0,0,0-2.535-1.1,1.372,1.372,0,0,0-.725.058" transform="translate(-359.342 -333.983)" fill="#fd868a"/>
        <path id="Trazado_905077" data-name="Trazado 905077" d="M469.542,493.483c2.656-1.209,9.025-9.527,12.416-11.665a4.418,4.418,0,0,1,3.316-.728,4.689,4.689,0,0,1,2.559,2.089,3.778,3.778,0,0,1,1.762,2.569,2.169,2.169,0,0,1-1.063,2.1,2.361,2.361,0,0,1-.113.259c-.484.8-13.7,13.831-15.279,15.267a5.717,5.717,0,0,1-2.176,1.507c-.06.011-.126.016-.186.025a4.755,4.755,0,0,1-2.1-.076,5.313,5.313,0,0,1-1.823-1c-1.663-1.337-9.525-9.17-10.381-10.738a4.167,4.167,0,0,1-.314-3.172,5.194,5.194,0,0,1,2.5-3.059,4.214,4.214,0,0,1,3.289-.349,5.182,5.182,0,0,1,1.65.926,64.36,64.36,0,0,1,5.853,5.836c.031.067.058.136.089.2" transform="translate(-403.562 -425.697)" fill="#1d1221"/>
        <path id="Trazado_905078" data-name="Trazado 905078" d="M500.769,500.954a1.833,1.833,0,0,1,1.108.3,4.374,4.374,0,0,1,1.925,2.378,1.452,1.452,0,0,1-.047.237c-.259.67-13.448,13.843-14.93,15.11a5.78,5.78,0,0,1-2.25,1.339c-1.532.311-7.066-6.493-8.7-7.525-.037-.023-.073-.045-.113-.068-.364-1.132-1.99-1.912-2.566-3.015a2,2,0,0,1-.1-1.67,2.811,2.811,0,0,1,1.527-1.569,2.222,2.222,0,0,1,1.673-.019c1.26.607,7.336,6.658,7.836,7.848l.1-.041c2.983-1.219,12.1-12.956,14.54-13.3" transform="translate(-420.356 -443.361)" fill="#fff"/>
        <path id="Trazado_905079" data-name="Trazado 905079" d="M35.262,107.974c.67-1.461.236-10.454.23-12.558l0-38.837c.008-6.2-.28-12.505.013-18.69a5.443,5.443,0,0,1,.416-2.23,2.4,2.4,0,0,1,1.71-1.344,33.83,33.83,0,0,1,5.335-.075l10.913.016c12.817.015,25.649-.124,38.464.04,2.061.026,10.947.487,12.091.042a1.436,1.436,0,0,0,.147-.078,1.986,1.986,0,0,1,.917,1.549c.343,2.47.361,32.813-.076,34a26.152,26.152,0,0,0-18.953,3.525,28.021,28.021,0,0,0-12.4,17.445,25.029,25.029,0,0,0-.469,8.308c.139,1.265,1.668,7.411,1.584,7.763l-19.55.1-10.156-.038a46.127,46.127,0,0,0-7.548.249,19.968,19.968,0,0,0-2.671.81" transform="translate(-31.208 -30.239)" fill="#fd868a"/>
        <path id="Trazado_905080" data-name="Trazado 905080" d="M96.874,495.333c2.15-.372,18.374-.435,19.6.149a1.7,1.7,0,0,1,.33,1.134c-.275.541-.39.531-.922.784-3.792.227-7.728.024-11.539.03-2.147,0-4.908.324-6.99-.052-.477-.086-.587-.3-.835-.672a2.121,2.121,0,0,1,.356-1.372" transform="translate(-85.413 -438.134)" fill="#1d1221"/>
        <path id="Trazado_905081" data-name="Trazado 905081" d="M96.085,357.476c2.863-.416,7.265-.063,10.279-.068,6.275-.009,12.639-.254,18.9-.007a2.489,2.489,0,0,1,1.393.264,1.26,1.26,0,0,1,.34,1.012,1.7,1.7,0,0,1-1.008.9c-.437.2-27.5.334-29.444.052-.448-.065-.547-.271-.791-.606a2.184,2.184,0,0,1,.327-1.547" transform="translate(-84.724 -316.198)" fill="#1d1221"/>
        <path id="Trazado_905082" data-name="Trazado 905082" d="M95.85,426.018c5.243-.359,10.675-.081,15.936-.078l8.634.027c1.317-.008,2.661-.154,3.973-.085a4.112,4.112,0,0,1,1.642.386c.309.38.495.572.382,1.1-.11.505-.506.606-.914.81-1.446.31-27.6.307-29.6-.024-.351-.248-.655-.393-.673-.883-.024-.606.246-.843.621-1.256" transform="translate(-84.279 -376.878)" fill="#1d1221"/>
        <path id="Trazado_905083" data-name="Trazado 905083" d="M267.617,154.755l21.726.023c4.2-.008,8.663-.372,12.822.147l-.042.238.3-.065-.089-.125.16.074a1.593,1.593,0,0,1,.149,1.2,1.848,1.848,0,0,1-1.084.7c-3.845.041-33.234.408-34.323-.166a1.352,1.352,0,0,1-.445-1.037,1.64,1.64,0,0,1,.825-.992" transform="translate(-236.12 -136.867)" fill="#1d1221"/>
        <path id="Trazado_905084" data-name="Trazado 905084" d="M267.525,221.44c2.14-.209,4.439-.051,6.594-.042l12.107.061c3.336.02,6.673.087,10.009.065,1.561-.01,3.187-.2,4.738-.074A1.227,1.227,0,0,1,302.8,222.8c-.131.544-.55.657-1,.886-2.022.135-32.828.225-33.815-.047-.511-.141-.647-.386-.911-.8a1.926,1.926,0,0,1,.45-1.4" transform="translate(-236.363 -195.887)" fill="#1d1221"/>
        <path id="Trazado_905085" data-name="Trazado 905085" d="M95.721,289.7c2.252-.213,4.622-.074,6.89-.07l12.455.006,25.911.011c2.53.008,5.086-.107,7.608-.059a3.489,3.489,0,0,1,1.8.363c.411.292.406.571.466,1.022-.233.586-.319.581-.88.89-.587.179-53.195.22-54.015-.04-.534-.17-.623-.321-.859-.81a2.1,2.1,0,0,1,.618-1.313" transform="translate(-84.169 -256.283)" fill="#1d1221"/>
        <path id="Trazado_905086" data-name="Trazado 905086" d="M96.1,126.374c2.5-.469,5.437-.11,7.988-.107,1.4,0,2.818-.133,4.209-.074a1.635,1.635,0,0,1,1.275.429,3.8,3.8,0,0,1,.482,1.881c.092,1.142.165,9.428-.024,10.166-.149.579-.427.684-.9.965-1.079.547-11.767.193-13.165-.16a.7.7,0,0,1-.2-.3c-.39-1.157-.233-10.159-.052-11.721a2.88,2.88,0,0,1,.38-1.075" transform="translate(-84.544 -111.632)" fill="#1d1221"/>
        <path id="Trazado_905087" data-name="Trazado 905087" d="M113.19,146.4l9.02.021.162.275a64.591,64.591,0,0,1-8.407,7.6l-.639-.045a3.318,3.318,0,0,0,.123-.379c.288-1.275.4-6.422-.259-7.476" transform="translate(-100.177 -129.565)" fill="#fff"/>
        <path id="Trazado_905088" data-name="Trazado 905088" d="M123.258,146.5c.492.01.814-.105,1.165.259.1,1.58.44,7.672-.238,8.744a85,85,0,0,1-9.281-.033,2.127,2.127,0,0,1-.529-1.136l.639.045a64.587,64.587,0,0,0,8.407-7.6Z" transform="translate(-101.226 -129.651)" fill="#51e4cf"/>
      </g>
    </g>
  </g>
</svg>
