<svg xmlns="http://www.w3.org/2000/svg" xmlns:xlink="http://www.w3.org/1999/xlink" width="108" height="108" viewBox="0 0 108 108">
  <defs>
    <filter id="Trazado_896985" x="0" y="0" width="108" height="108" filterUnits="userSpaceOnUse">
      <feOffset dy="3" input="SourceAlpha"/>
      <feGaussianBlur stdDeviation="3" result="blur"/>
      <feFlood flood-opacity="0.161"/>
      <feComposite operator="in" in2="blur"/>
      <feComposite in="SourceGraphic"/>
    </filter>
    <clipPath id="clip-path">
      <rect id="Rect치ngulo_402391" data-name="Rect치ngulo 402391" width="46.26" height="53.651" fill="none"/>
    </clipPath>
  </defs>
  <g id="Grupo_1110195" data-name="Grupo 1110195" transform="translate(-956.051 -2601.5)">
    <g id="Grupo_1110182" data-name="Grupo 1110182" transform="translate(208.27 -1225.5)">
      <g id="Grupo_1098742" data-name="Grupo 1098742" transform="translate(-446.539 3444.258)">
        <g transform="matrix(1, 0, 0, 1, 1194.32, 382.74)" filter="url(#Trazado_896985)">
          <g id="Trazado_896985-2" data-name="Trazado 896985" transform="translate(9 6)" fill="#d6deec" opacity="0.859">
            <path d="M 44.99993896484375 88.5 C 39.12682723999023 88.5 33.4301872253418 87.35007476806641 28.06826400756836 85.08217620849609 C 22.88850212097168 82.89132690429688 18.23627662658691 79.75461578369141 14.2408390045166 75.75916290283203 C 10.24540138244629 71.76372528076172 7.108676433563232 67.11151123046875 4.917826652526855 61.9317512512207 C 2.649926424026489 56.56982421875 1.500001430511475 50.87317657470703 1.500001430511475 45.00006103515625 C 1.500001430511475 39.12682342529297 2.649926424026489 33.4301872253418 4.917826652526855 28.06826210021973 C 7.108676433563232 22.88850021362305 10.24540138244629 18.23628807067871 14.2408390045166 14.24083709716797 C 18.23628807067871 10.24540042877197 22.88850212097168 7.108675003051758 28.06826400756836 4.917825222015381 C 33.4301872253418 2.649924993515015 39.12682723999023 1.5 44.99993896484375 1.5 C 50.87305068969727 1.5 56.5697021484375 2.649924993515015 61.93162536621094 4.917825222015381 C 67.11138916015625 7.108675003051758 71.76360321044922 10.24540042877197 75.75904083251953 14.24083709716797 C 79.75448608398438 18.23627471923828 82.89120483398438 22.88850021362305 85.08205413818359 28.06826210021973 C 87.34995269775391 33.4301872253418 88.4998779296875 39.12682342529297 88.4998779296875 44.99993896484375 C 88.4998779296875 50.87317657470703 87.34995269775391 56.56982421875 85.08205413818359 61.9317512512207 C 82.89120483398438 67.11151123046875 79.75448608398438 71.76372528076172 75.75904083251953 75.75916290283203 C 71.76360321044922 79.75461578369141 67.11138916015625 82.89132690429688 61.93162536621094 85.08217620849609 C 56.5697021484375 87.35007476806641 50.87305068969727 88.5 44.99993896484375 88.5 Z" stroke="none"/>
            <path d="M 44.99993896484375 3 C 39.32865142822266 3 33.82860946655273 4.110054016113281 28.65258026123047 6.299331665039062 C 23.65162658691406 8.414558410644531 19.15966796875 11.44332885742188 15.30149841308594 15.30149841308594 C 11.44332122802734 19.15966796875 8.41455078125 23.65162658691406 6.299324035644531 28.65258407592773 C 4.110054016113281 33.82861328125 2.999992370605469 39.32865524291992 2.999992370605469 45.00005722045898 C 2.999992370605469 50.67134475708008 4.110054016113281 56.17138671875 6.299324035644531 61.347412109375 C 8.41455078125 66.34837341308594 11.44332122802734 70.84033203125 15.30149841308594 74.69850158691406 C 19.15966796875 78.55667114257812 23.65162658691406 81.58544158935547 28.65258026123047 83.70066833496094 C 33.82860946655273 85.88994598388672 39.32865142822266 87 44.99993896484375 87 C 50.67122650146484 87 56.17126846313477 85.88994598388672 61.34729766845703 83.70066833496094 C 66.34825134277344 81.58544158935547 70.8402099609375 78.55667114257812 74.69837951660156 74.69850158691406 C 78.55654907226562 70.84033203125 81.5853271484375 66.34837341308594 83.70055389404297 61.347412109375 C 85.88982391357422 56.17138671875 86.9998779296875 50.67134475708008 86.9998779296875 44.99994277954102 C 86.9998779296875 39.32865524291992 85.88982391357422 33.82861328125 83.70055389404297 28.65258407592773 C 81.5853271484375 23.65162658691406 78.55654907226562 19.15966796875 74.69837951660156 15.30149841308594 C 70.8402099609375 11.44332885742188 66.34825134277344 8.414558410644531 61.34729766845703 6.299331665039062 C 56.17126846313477 4.110054016113281 50.67122650146484 3 44.99993896484375 3 M 44.99993896484375 0 C 69.85272216796875 0 89.99988555908203 20.14715576171875 89.99988555908203 44.99994277954102 L 89.99988555908203 45.00005722045898 C 89.99988555908203 69.85284423828125 69.85272216796875 90 44.99993896484375 90 C 20.14715576171875 90 -7.62939453125e-06 69.85284423828125 -7.62939453125e-06 45.00005722045898 L -7.62939453125e-06 44.99994277954102 C -7.62939453125e-06 20.14715576171875 20.14715576171875 0 44.99993896484375 0 Z" stroke="none" fill="#fff"/>
          </g>
        </g>
        <g id="Rect치ngulo_400907" data-name="Rect치ngulo 400907" transform="translate(1203.32 388.742)" fill="none" stroke="#fff" stroke-width="3">
          <rect width="90" height="90" rx="45" stroke="none"/>
          <rect x="1.5" y="1.5" width="87" height="87" rx="43.5" fill="none"/>
        </g>
      </g>
    </g>
    <g id="Grupo_1110191" data-name="Grupo 1110191" transform="translate(985.953 2626.5)">
      <g id="Grupo_1110190" data-name="Grupo 1110190" transform="translate(0 0)" clip-path="url(#clip-path)">
        <path id="Trazado_905044" data-name="Trazado 905044" d="M36.3,17.848l.6-6.538v0a.933.933,0,0,0-.044-.377l-.935-2.805a.937.937,0,0,0-1.033-.628c-.432.068-.844.118-1.266.179A8.762,8.762,0,0,0,24.715,0H22.909A8.762,8.762,0,0,0,14,7.665c-.426-.059-.838-.106-1.274-.172a.927.927,0,0,0-1.026.629l-.935,2.805a.933.933,0,0,0-.044.377v0l.6,6.515a10.752,10.752,0,0,0-9.953,9.2L.046,39.42a8.193,8.193,0,0,0,4,7.931l9.683,5.661a4.692,4.692,0,0,0,2.174.636c.061,0,.123,0,.184,0a4.667,4.667,0,0,0,3.968-2.212l.012,0H43.453a.936.936,0,0,0,.932-.853l1.874-21.243a12.042,12.042,0,0,0-9.961-11.5m-23.049.482L12.7,12.339a72.057,72.057,0,0,0,22.232.009l-.553,5.983a.919.919,0,0,0-.082.376.864.864,0,0,0,.033.16l-.6,6.466a5.694,5.694,0,0,1-5.7,5.193H19.591a5.694,5.694,0,0,1-5.7-5.193l-.6-6.466a.864.864,0,0,0,.033-.16.915.915,0,0,0-.082-.376m9.66-16.459h1.807a6.879,6.879,0,0,1,7.05,6.054,64.632,64.632,0,0,1-15.907-.014,6.883,6.883,0,0,1,7.05-6.04M34.4,9.462l.335,1.008a70.184,70.184,0,0,1-21.841-.008l.335-1.005a68.2,68.2,0,0,0,21.17.005M18.521,44.982l-.73-.516c.9-1.183,1.78-2.348,2.512-3.316a3.852,3.852,0,0,1,2.618-1.516,3.893,3.893,0,0,1,2.956.851l5.033,3.655a.935.935,0,1,1-1.1,1.513l-5.07-3.684a2.055,2.055,0,0,0-1.584-.479,2,2,0,0,0-1.358.786c-.727.964-1.6,2.121-2.5,3.3a4.265,4.265,0,0,0-.777-.591M42.6,49.572h-5.69l.933-19.6A.935.935,0,0,0,36.95,29a.951.951,0,0,0-.978.89l-.935,19.641c0,.015.007.029.007.044H20.729a4.674,4.674,0,0,0-.113-1.783,4.8,4.8,0,0,0-.213-.579c1.027-1.348,2.053-2.706,2.885-3.809a.144.144,0,0,1,.107-.058c.058,0,.135.054.212.114l5.1,3.707a2.805,2.805,0,1,0,3.3-4.539l-5-3.63a5.763,5.763,0,0,0-8.2,1.026c-.739.98-1.634,2.164-2.545,3.362l-6.19-4.378a.332.332,0,0,1-.132-.342l1.688-7.6A.935.935,0,1,0,9.8,30.663l-1.687,7.6a2.2,2.2,0,0,0,.876,2.274l8.516,6.02a2.807,2.807,0,0,1,1.005,3.838,2.813,2.813,0,0,1-2.536,1.389,2.78,2.78,0,0,1-1.3-.383L4.995,45.736A6.32,6.32,0,0,1,1.905,39.62L3.222,27.278A8.922,8.922,0,0,1,11.5,19.688l.538,5.817A7.554,7.554,0,0,0,19.591,32.4h8.442A7.554,7.554,0,0,0,35.59,25.5l.536-5.793c3.94.557,8.263,4.635,8.266,9.552Z" transform="translate(0 0)"/>
      </g>
    </g>
  </g>
</svg>
