<svg xmlns="http://www.w3.org/2000/svg" xmlns:xlink="http://www.w3.org/1999/xlink" width="136" height="136" viewBox="0 0 136 136">
  <defs>
    <clipPath id="clip-path">
      <rect id="Rect치ngulo_402393" data-name="Rect치ngulo 402393" width="110.88" height="105.641" fill="none"/>
    </clipPath>
  </defs>
  <g id="Grupo_1110204" data-name="Grupo 1110204" transform="translate(2918 9879)">
    <rect id="Rect치ngulo_402394" data-name="Rect치ngulo 402394" width="136" height="136" rx="68" transform="translate(-2918 -9879)" fill="#fecfb5"/>
    <g id="Grupo_1110199" data-name="Grupo 1110199" transform="translate(-2905.44 -9863.021)" clip-path="url(#clip-path)">
      <path id="Trazado_905048" data-name="Trazado 905048" d="M112.622,98.615c1.992-2.035,4.491-5.842,7.444-6.391,3.025-.562,6.874,2.819,9.269,4.446,2.4-.3,4.837-.743,7.251-.9a4.043,4.043,0,0,1,3.156.88c1.311,1.26,1.172,3.13,1.25,4.8,3.811-.257,16.028-2.256,18.8-1.392,1.024.893,1.174,6.478,1.334,7.93.22-.02.44-.039.66-.055,2.877-.209,4.566,1.593,6.612,3.358,2.07,1.786,5.079,4.05,5.189,7.035.115,3.118-4.563,6.908-6.625,8.992.724,5.053,1.183,10.165,1.728,15.241.73,6.8,1.5,13.609,1.935,20.44.007.782.129,1.665-.49,2.25-.774.73-2.751.669-3.791.751l-39.531,5.324c-10.609,1.477-21.249,3.162-31.9,4.3-1.577.214-4.715,1.26-6.077.29-.755-.538-.769-1.679-.9-2.527l-5.3-36c-.934-6.406-2.2-12.918-2.763-19.356a3.69,3.69,0,0,1,.179-2.2c1.615-1.138,4.71-1.008,6.665-1.164-.1-1.016-.453-2.522.216-3.388.991-1.287,4.518-1.107,6.148-1.332a6.666,6.666,0,0,1,.2-2.846c1.049-1.124,8.574-1.513,10.474-1.711l-.157-1.228c-.165-1.38-.238-2.674.74-3.811,1.534-1.784,6.114-1.57,8.28-1.734" transform="translate(-69.375 -80.126)" fill="#141625"/>
      <path id="Trazado_905049" data-name="Trazado 905049" d="M99.172,284.94c.019-.519-.042-.687.29-1.1a7.122,7.122,0,0,1,4.152-.269l.313.594a12.907,12.907,0,0,1-4.755.776" transform="translate(-86.221 -246.359)" fill="#fff"/>
      <path id="Trazado_905050" data-name="Trazado 905050" d="M361.577,111.193c2.414-.141,4.083,1.251,6,2.507l-4.218.469c-1.915.158-3.823.418-5.73.652a15.616,15.616,0,0,1,3.947-3.628" transform="translate(-310.926 -96.664)" fill="#fff"/>
      <path id="Trazado_905051" data-name="Trazado 905051" d="M278.633,143.812a2.554,2.554,0,0,1,.423-1.173,1.779,1.779,0,0,1,1.141-.529c1.014-.14,2.083-.105,3.109-.211l9.653-1.089c5.836-.674,11.747-1.6,17.609-1.943.485.242.468.5.653,1-6.973.994-14.047,1.641-21.056,2.385-3.761.4-7.906.479-11.533,1.564" transform="translate(-242.246 -120.732)" fill="#fd868a"/>
      <path id="Trazado_905052" data-name="Trazado 905052" d="M278.633,150.45c3.626-1.085,7.771-1.165,11.533-1.564,7.008-.743,14.083-1.391,21.056-2.385l.24,2.433c-3.595.358-31.956,3.684-32.555,3.2q-.145-.842-.273-1.685" transform="translate(-242.246 -127.37)" fill="#f85665"/>
      <path id="Trazado_905053" data-name="Trazado 905053" d="M254.3,381.44a13.044,13.044,0,0,0,1.669-1.761c1,9.771,2.231,19.527,3.114,29.31l-53.939,7.042-12.113,1.486a62.924,62.924,0,0,1-8.242.821l-.131-2.557a16.279,16.279,0,0,0,3.91.607c5.924-.149,13.719-1.661,19.758-2.385,14.76-1.769,29.652-3.449,44.362-5.509,1.271-.178,3.722-.29,4.518-1.343.2-3.879-.948-9.421-1.415-13.471-.457-3.966-.543-8.383-1.492-12.241" transform="translate(-160.546 -330.096)" fill="#f85665"/>
      <path id="Trazado_905054" data-name="Trazado 905054" d="M149.888,248.666c1.421-.082,2.844-.3,4.257-.468.676,11.8,1.053,23.63,1.5,35.442.178,4.76-.014,12.571.93,16.951a1.768,1.768,0,0,0,1.55.6,76.373,76.373,0,0,0,8.977-.946l20.468-2.475,24.2-3.105c3.945-.5,8.1-.78,11.991-1.527a3.426,3.426,0,0,0,1.839-.852c.985-2.054-1.994-19.545-2.175-23.542a1.7,1.7,0,0,1,.647-1.618c.949,3.857,1.035,8.274,1.492,12.24.467,4.05,1.618,9.592,1.415,13.471-.8,1.053-3.247,1.165-4.518,1.343-14.71,2.059-29.6,3.739-44.362,5.509-6.039.723-13.834,2.236-19.758,2.384a16.281,16.281,0,0,1-3.91-.607c-.872-5.322-.968-11.023-1.42-16.415l-1.739-18.676c-.493-5.9-.8-11.821-1.382-17.714" transform="translate(-130.314 -215.785)" fill="#fff"/>
      <path id="Trazado_905055" data-name="Trazado 905055" d="M99.172,290.267a12.907,12.907,0,0,0,4.755-.776c-.371,2.666.263,5.961.5,8.654l1.4,15.666L107.3,330.22c.241,2.9.272,5.876.678,8.749a5.907,5.907,0,0,0,.842,2.594,1.47,1.47,0,0,0,1.348.67c3.952.383,11.5-1.02,15.676-1.528l40.411-5.168,11.686-1.531a48.959,48.959,0,0,1,6.677-.727c.3.384.233.412.18.908a3.839,3.839,0,0,1-2.8,1.184c-4.418.632-8.9,1.051-13.327,1.636-20.483,2.7-41.032,5.2-61.459,8.292-.352-4.712-1.247-9.439-1.969-14.109l-2.978-20.032-2.039-14.25a42.2,42.2,0,0,0-1.046-6.642" transform="translate(-86.221 -251.686)" fill="#f85665"/>
      <path id="Trazado_905056" data-name="Trazado 905056" d="M261.272,170.1h.547c.709.939.985,5.919,1.166,7.375-.847,1.023-1.872,1.959-2.8,2.914a20.119,20.119,0,0,0-13.77-3.314,20.077,20.077,0,0,0-16.963,22.667c.889,5.94,3.976,10.129,8.684,13.63a38.079,38.079,0,0,0-.066,4.982,1.993,1.993,0,0,0,.914,1.648c1.686.24,4.652-1.781,6.191-2.6a24.183,24.183,0,0,0,4.852,1.4c1.842.282,5.069.56,6.6-.569.265-.5.336-.5.19-1.076-1.394-1.2-5.559-.547-7.588-.878a20.943,20.943,0,0,1-4.041-1.36c-1.629.621-3.2,1.506-4.761,2.284l.037-4.928c-4.166-3.336-7.395-6.571-8.468-12.063a17.108,17.108,0,0,1,2.564-13.022,17.55,17.55,0,0,1,11.2-7.478c5.694-1.046,10.113.759,14.69,3.94,1.767-1.6,3.955-5.222,6.438-5.481,1.83.4,3.942,2.733,5.323,3.968,1.326,1.186,2.862,2.483,2.969,4.387-.639,2.118-6.507,7.564-8.282,9.435l-8.953,8.995a56.174,56.174,0,0,0-4.9,5.029,2.915,2.915,0,0,0-.846,2.191c.289.235.267.315.668.292,2.147-.122,9.426-8.421,11.249-10.4,1.127,6.845,1.852,13.835,2.429,20.75-21.543,3.111-43.21,5.313-64.781,8.185l-2.242-54.5c20.6-1.929,41.147-4.443,61.745-6.407" transform="translate(-173.47 -147.882)" fill="#fff"/>
      <path id="Trazado_905057" data-name="Trazado 905057" d="M479.869,276.247a12.287,12.287,0,0,1,2.526-3.572c1.5-1.526,4.52-4.111,6.849-3.957.664.044.85.419,1.241.886-1.019,1.542-3.318,1.664-4.8,2.664-1.657,1.121-2.858,4.172-4.7,4.665a2.637,2.637,0,0,1-1.116-.685" transform="translate(-417.202 -233.62)" fill="#231d24"/>
      <path id="Trazado_905058" data-name="Trazado 905058" d="M270.588,269.07a1.723,1.723,0,0,1,1.341.307,1.548,1.548,0,0,1,.335,1.244,1.44,1.44,0,0,1-.865.637c-3.2,1.006-11.143,1.025-15.035,1.585a2.455,2.455,0,0,1-1.729-.447c-.208-.5-.3-.522-.084-1.049,1.822-1.447,13.06-1.989,16.036-2.277" transform="translate(-221.203 -233.914)" fill="#141625"/>
      <path id="Trazado_905059" data-name="Trazado 905059" d="M273,359.8a1.031,1.031,0,0,1,.175-.007c.554.075.736.375,1.027.79a1.4,1.4,0,0,1-.467,1.114c-2.372,1.19-13.444,1.736-16.927,2.113l-.81-.213c-.37-.45-.531-.519-.536-1.118a2.152,2.152,0,0,1,1.111-.761c2.867-.957,12.825-1.591,16.427-1.918" transform="translate(-222.099 -312.801)" fill="#141625"/>
      <path id="Trazado_905060" data-name="Trazado 905060" d="M272.45,313.655a1.384,1.384,0,0,1,.993.346,1.477,1.477,0,0,1,.077,1.324,1.878,1.878,0,0,1-1.017.642,36.918,36.918,0,0,1-5.4.626l-10.672,1.052a1.773,1.773,0,0,1-1.015-.555,1.517,1.517,0,0,1,.012-1.261,2.781,2.781,0,0,1,1.431-.66c1.4-.256,2.959-.22,4.391-.363Z" transform="translate(-221.948 -272.694)" fill="#141625"/>
      <path id="Trazado_905061" data-name="Trazado 905061" d="M273.98,406.759a3.974,3.974,0,0,1,1.949,0,2.033,2.033,0,0,1,1.131,1.051l-.2.44c-2.089,1.449-12.156,1.893-15.273,2.208a13.973,13.973,0,0,1-1.959.127,1.6,1.6,0,0,1-1.27-.64c-.065-.358-.179-.457.045-.774,1.028-1.455,13.051-2.13,15.578-2.415" transform="translate(-224.542 -353.529)" fill="#141625"/>
      <path id="Trazado_905062" data-name="Trazado 905062" d="M277.31,453.26a3.6,3.6,0,0,1,1.133-.054c.558.1.751.4,1.027.847a1.572,1.572,0,0,1-.376.985c-2.866,1.377-12.465,1.678-16.191,2.167a6.119,6.119,0,0,1-1.631-.019,1.722,1.722,0,0,1-.739-1l.278-.519c2.139-1.424,13.261-2.06,16.5-2.4" transform="translate(-226.509 -393.998)" fill="#141625"/>
      <path id="Trazado_905063" data-name="Trazado 905063" d="M278.062,502.57a9.819,9.819,0,0,1,1.832-.132,2.778,2.778,0,0,1,1.948.939l-.292.566c-1.969,1.407-12.134,1.99-15.157,2.3a11.368,11.368,0,0,1-2.587.223,1.526,1.526,0,0,1-1.216-.762c-.014-.306-.106-.58.1-.824,1.133-1.338,12.986-2.064,15.372-2.309" transform="translate(-228.269 -436.814)" fill="#141625"/>
      <path id="Trazado_905064" data-name="Trazado 905064" d="M283.458,550.926a1.257,1.257,0,0,1,.444-.05c.551.044.747.349,1.045.746.041.34.158.611-.046.9-.855,1.232-14.947,2.287-17.135,2.537a2.9,2.9,0,0,1-.713-.006,1.661,1.661,0,0,1-1.143-.822,1.279,1.279,0,0,1,.359-1.065c.924-.932,15.143-2.015,17.189-2.245" transform="translate(-231.185 -478.932)" fill="#141625"/>
      <path id="Trazado_905065" data-name="Trazado 905065" d="M482.6,266.819c.505-.51.709-.8,1.472-.836,1.855-.091,3.986,1.15,5.317,2.325.488.411.813.574,1,1.216a32.524,32.524,0,0,1-4.315,4.737c-2.786,2.843-5.594,5.655-8.477,8.4-.522-.776-1.1-1.88-1.963-2.283a3.4,3.4,0,0,0-2.25.779,3.342,3.342,0,0,0-2.721-.7,4.431,4.431,0,0,0-2.745,2.083,5.926,5.926,0,0,0-.764,2.088c-.974-3.524-.148-7.5,1.293-10.755a2.636,2.636,0,0,0,1.116.685c1.847-.494,3.048-3.544,4.705-4.665,1.477-1,3.777-1.121,4.8-2.663,1.094-.157,2.542.052,3.536-.408" transform="translate(-405.78 -231.243)" fill="#fee606"/>
      <path id="Trazado_905066" data-name="Trazado 905066" d="M588.238,266.819c.505-.51.709-.8,1.472-.836,1.855-.091,3.986,1.15,5.317,2.325a3.175,3.175,0,0,1-.525,1.415,41.67,41.67,0,0,1-5.78-2.137,4.977,4.977,0,0,1-.484-.767" transform="translate(-511.418 -231.243)" fill="#231d24"/>
      <path id="Trazado_905067" data-name="Trazado 905067" d="M480.538,277.047c5.115-4.39,10.027-9.865,14.763-14.717,1.714-1.757,3.534-4.138,5.546-5.5a3.216,3.216,0,0,1,2.185-.584,5.07,5.07,0,0,1,3.379,1.931,3.648,3.648,0,0,1,.7,2.927,4.458,4.458,0,0,1-1.213,2.118c-2.079,2.357-4.449,4.522-6.683,6.738l-11.107,11.079c-1.5,1.5-4.1,4.693-5.667,5.694a2.78,2.78,0,0,1-2.337.5c-1.587-.448-8.879-8.166-9.739-9.99a7.9,7.9,0,0,1-.4-1.1,5.928,5.928,0,0,1,.764-2.088,4.431,4.431,0,0,1,2.745-2.082,3.342,3.342,0,0,1,2.721.7c1.44,1.46,2.859,2.953,4.341,4.369" transform="translate(-408.593 -222.765)" fill="#1d1221"/>
      <path id="Trazado_905068" data-name="Trazado 905068" d="M498.472,295.924a9.086,9.086,0,0,0,1.166.264,2.6,2.6,0,0,0,1.588-.209c1.746-.981,3.315-2.978,4.723-4.4l9.49-9.588a61.68,61.68,0,0,1,5.845-5.821,1.754,1.754,0,0,1,1.733-.375,3.687,3.687,0,0,1,1.13,1.694c-.232,1.228-20.55,21.215-23.616,24.549-1.871-1.686-7.993-7.041-8.163-9.412a2.123,2.123,0,0,1,.1-.681c.411-.317.477-.4,1-.349,1.742.169,3.937,2.96,4.989,4.287a.276.276,0,0,1,.021.038" transform="translate(-428.064 -239.725)" fill="#f85665"/>
      <path id="Trazado_905069" data-name="Trazado 905069" d="M539.137,295.924a9.083,9.083,0,0,0,1.166.264,2.6,2.6,0,0,0,1.588-.209c1.746-.981,3.315-2.978,4.722-4.4L556.1,282a61.674,61.674,0,0,1,5.846-5.821,1.754,1.754,0,0,1,1.733-.375c-4.672,4.52-9.211,9.157-13.761,13.8-2.209,2.255-4.361,4.793-6.762,6.826a3.869,3.869,0,0,1-2.2,1.188,1.874,1.874,0,0,1-1.519-.752,1.765,1.765,0,0,1-.3-.937" transform="translate(-468.73 -239.725)" fill="#ffa5a1"/>
    </g>
  </g>
</svg>
