<svg xmlns="http://www.w3.org/2000/svg" xmlns:xlink="http://www.w3.org/1999/xlink" width="108" height="108" viewBox="0 0 108 108">
  <defs>
    <filter id="Trazado_896985" x="0" y="0" width="108" height="108" filterUnits="userSpaceOnUse">
      <feOffset dy="3" input="SourceAlpha"/>
      <feGaussianBlur stdDeviation="3" result="blur"/>
      <feFlood flood-opacity="0.161"/>
      <feComposite operator="in" in2="blur"/>
      <feComposite in="SourceGraphic"/>
    </filter>
    <clipPath id="clip-path">
      <rect id="Rect치ngulo_402388" data-name="Rect치ngulo 402388" width="43.737" height="49.697" transform="translate(0 0)" fill="none"/>
    </clipPath>
  </defs>
  <g id="Grupo_1110198" data-name="Grupo 1110198" transform="translate(-328.5 -2601.5)">
    <g id="Grupo_1110179" data-name="Grupo 1110179" transform="translate(-419.281 -1225.5)">
      <g id="Grupo_1098742" data-name="Grupo 1098742" transform="translate(-446.539 3444.258)">
        <g transform="matrix(1, 0, 0, 1, 1194.32, 382.74)" filter="url(#Trazado_896985)">
          <g id="Trazado_896985-2" data-name="Trazado 896985" transform="translate(9 6)" fill="#d6deec" opacity="0.859">
            <path d="M 44.99993896484375 88.5 C 39.12682723999023 88.5 33.4301872253418 87.35007476806641 28.06826400756836 85.08217620849609 C 22.88850212097168 82.89132690429688 18.23627662658691 79.75461578369141 14.2408390045166 75.75916290283203 C 10.24540138244629 71.76372528076172 7.108676433563232 67.11151123046875 4.917826652526855 61.9317512512207 C 2.649926424026489 56.56982421875 1.500001430511475 50.87317657470703 1.500001430511475 45.00006103515625 C 1.500001430511475 39.12682342529297 2.649926424026489 33.4301872253418 4.917826652526855 28.06826210021973 C 7.108676433563232 22.88850021362305 10.24540138244629 18.23628807067871 14.2408390045166 14.24083709716797 C 18.23628807067871 10.24540042877197 22.88850212097168 7.108675003051758 28.06826400756836 4.917825222015381 C 33.4301872253418 2.649924993515015 39.12682723999023 1.5 44.99993896484375 1.5 C 50.87305068969727 1.5 56.5697021484375 2.649924993515015 61.93162536621094 4.917825222015381 C 67.11138916015625 7.108675003051758 71.76360321044922 10.24540042877197 75.75904083251953 14.24083709716797 C 79.75448608398438 18.23627471923828 82.89120483398438 22.88850021362305 85.08205413818359 28.06826210021973 C 87.34995269775391 33.4301872253418 88.4998779296875 39.12682342529297 88.4998779296875 44.99993896484375 C 88.4998779296875 50.87317657470703 87.34995269775391 56.56982421875 85.08205413818359 61.9317512512207 C 82.89120483398438 67.11151123046875 79.75448608398438 71.76372528076172 75.75904083251953 75.75916290283203 C 71.76360321044922 79.75461578369141 67.11138916015625 82.89132690429688 61.93162536621094 85.08217620849609 C 56.5697021484375 87.35007476806641 50.87305068969727 88.5 44.99993896484375 88.5 Z" stroke="none"/>
            <path d="M 44.99993896484375 3 C 39.32865142822266 3 33.82860946655273 4.110054016113281 28.65258026123047 6.299331665039062 C 23.65162658691406 8.414558410644531 19.15966796875 11.44332885742188 15.30149841308594 15.30149841308594 C 11.44332122802734 19.15966796875 8.41455078125 23.65162658691406 6.299324035644531 28.65258407592773 C 4.110054016113281 33.82861328125 2.999992370605469 39.32865524291992 2.999992370605469 45.00005722045898 C 2.999992370605469 50.67134475708008 4.110054016113281 56.17138671875 6.299324035644531 61.347412109375 C 8.41455078125 66.34837341308594 11.44332122802734 70.84033203125 15.30149841308594 74.69850158691406 C 19.15966796875 78.55667114257812 23.65162658691406 81.58544158935547 28.65258026123047 83.70066833496094 C 33.82860946655273 85.88994598388672 39.32865142822266 87 44.99993896484375 87 C 50.67122650146484 87 56.17126846313477 85.88994598388672 61.34729766845703 83.70066833496094 C 66.34825134277344 81.58544158935547 70.8402099609375 78.55667114257812 74.69837951660156 74.69850158691406 C 78.55654907226562 70.84033203125 81.5853271484375 66.34837341308594 83.70055389404297 61.347412109375 C 85.88982391357422 56.17138671875 86.9998779296875 50.67134475708008 86.9998779296875 44.99994277954102 C 86.9998779296875 39.32865524291992 85.88982391357422 33.82861328125 83.70055389404297 28.65258407592773 C 81.5853271484375 23.65162658691406 78.55654907226562 19.15966796875 74.69837951660156 15.30149841308594 C 70.8402099609375 11.44332885742188 66.34825134277344 8.414558410644531 61.34729766845703 6.299331665039062 C 56.17126846313477 4.110054016113281 50.67122650146484 3 44.99993896484375 3 M 44.99993896484375 0 C 69.85272216796875 0 89.99988555908203 20.14715576171875 89.99988555908203 44.99994277954102 L 89.99988555908203 45.00005722045898 C 89.99988555908203 69.85284423828125 69.85272216796875 90 44.99993896484375 90 C 20.14715576171875 90 -7.62939453125e-06 69.85284423828125 -7.62939453125e-06 45.00005722045898 L -7.62939453125e-06 44.99994277954102 C -7.62939453125e-06 20.14715576171875 20.14715576171875 0 44.99993896484375 0 Z" stroke="none" fill="#fff"/>
          </g>
        </g>
        <g id="Rect치ngulo_400907" data-name="Rect치ngulo 400907" transform="translate(1203.32 388.742)" fill="none" stroke="#fff" stroke-width="3">
          <rect width="90" height="90" rx="45" stroke="none"/>
          <rect x="1.5" y="1.5" width="87" height="87" rx="43.5" fill="none"/>
        </g>
      </g>
    </g>
    <g id="Grupo_1110185" data-name="Grupo 1110185" transform="translate(360.632 2627.652)">
      <g id="Grupo_1110184" data-name="Grupo 1110184" clip-path="url(#clip-path)">
        <path id="Trazado_905033" data-name="Trazado 905033" d="M11.233,32.664a.841.841,0,0,0-1.629.421l2.029,7.861a.841.841,0,0,0,.814.631.86.86,0,0,0,.211-.027.842.842,0,0,0,.6-1.025Z"/>
        <path id="Trazado_905034" data-name="Trazado 905034" d="M33.685,32.06a.841.841,0,0,0-1.025.6l-2.028,7.862a.841.841,0,1,0,1.628.42l2.029-7.861a.841.841,0,0,0-.6-1.025"/>
        <path id="Trazado_905035" data-name="Trazado 905035" d="M11.335,27.443A48.219,48.219,0,0,0,21.9,28.676a47.642,47.642,0,0,0,10.5-1.228,3.766,3.766,0,0,0,2.93-3.648V10.6a2.193,2.193,0,0,0-2.19-2.19H10.6A2.192,2.192,0,0,0,8.411,10.6V23.8a3.756,3.756,0,0,0,2.924,3.643M10.093,13.459h7.461l-7,11.624a2.042,2.042,0,0,1-.457-1.283ZM32.03,25.806a43.684,43.684,0,0,1-15.73.8l3.575-6.047a.841.841,0,0,0-1.448-.856L14.5,26.345c-.807-.136-1.628-.3-2.46-.477l7.477-12.409h2.6l-1.81,3.062a.841.841,0,0,0,1.448.856l2.316-3.918h5.882l-3.761,6.3a.841.841,0,0,0,.291,1.153.832.832,0,0,0,.43.119.84.84,0,0,0,.723-.41l4.276-7.16h1.731V23.8a2.072,2.072,0,0,1-1.614,2.006M10.6,10.1H33.136a.509.509,0,0,1,.508.508v1.174H10.093V10.6A.509.509,0,0,1,10.6,10.1"/>
        <path id="Trazado_905036" data-name="Trazado 905036" d="M41.319,13.53h-.946V9.662A9,9,0,0,0,32.431.715,80.182,80.182,0,0,0,11.275.688a8.993,8.993,0,0,0-7.91,8.943v3.9H2.418A2.42,2.42,0,0,0,0,15.948v6.1a2.421,2.421,0,0,0,2.418,2.418h.947V29.2a.875.875,0,0,0,.026.21l.933,3.614a4.246,4.246,0,0,0-2.052,1.8A4.376,4.376,0,0,0,1.859,38.2l1.6,5.554a8.262,8.262,0,0,0,7.9,5.941h21.02a8.262,8.262,0,0,0,7.9-5.932l1.63-5.62a4.177,4.177,0,0,0-2.488-5.07l.926-3.563a.838.838,0,0,0,.027-.212V24.464h.946a2.42,2.42,0,0,0,2.418-2.418v-6.1a2.42,2.42,0,0,0-2.418-2.418M5.047,9.631a7.309,7.309,0,0,1,6.427-7.272,78.732,78.732,0,0,1,20.761.026,7.32,7.32,0,0,1,6.456,7.277V29.193L35.527,41.374a4.377,4.377,0,0,1-4.236,3.276H12.453a4.373,4.373,0,0,1-4.237-3.283L5.047,29.089V9.631ZM2.418,22.782a.737.737,0,0,1-.736-.736v-6.1a.737.737,0,0,1,.736-.736h.947v7.57ZM40.053,35.7a2.513,2.513,0,0,1,.239,1.972L38.662,43.3a6.57,6.57,0,0,1-6.28,4.718H11.362A6.571,6.571,0,0,1,5.08,43.289l-1.6-5.553a2.649,2.649,0,0,1,.253-2.077,2.588,2.588,0,0,1,1.022-.986l1.836,7.115a6.056,6.056,0,0,0,5.866,4.545H31.291A6.061,6.061,0,0,0,37.155,41.8L39,34.709a2.5,2.5,0,0,1,1.057.995m2-13.658a.737.737,0,0,1-.736.736h-.946v-7.57h.946a.737.737,0,0,1,.736.736Z"/>
      </g>
    </g>
  </g>
</svg>
