<svg xmlns="http://www.w3.org/2000/svg" xmlns:xlink="http://www.w3.org/1999/xlink" width="136" height="136" viewBox="0 0 136 136">
  <defs>
    <clipPath id="clip-path">
      <rect id="Rect치ngulo_402398" data-name="Rect치ngulo 402398" width="98" height="87.969" fill="none"/>
    </clipPath>
  </defs>
  <g id="Grupo_1110213" data-name="Grupo 1110213" transform="translate(2918 9158)">
    <g id="Grupo_1110210" data-name="Grupo 1110210" transform="translate(0 183)">
      <g id="Grupo_1110206" data-name="Grupo 1110206" transform="translate(0 354)">
        <rect id="Rect치ngulo_402395" data-name="Rect치ngulo 402395" width="136" height="136" rx="68" transform="translate(-2918 -9695)" fill="#fecfb5"/>
      </g>
    </g>
    <g id="Grupo_1110212" data-name="Grupo 1110212" transform="translate(-2889 -9133.538)">
      <g id="Grupo_1110211" data-name="Grupo 1110211" clip-path="url(#clip-path)">
        <path id="Trazado_905100" data-name="Trazado 905100" d="M4.05.113C6.181-.054,8.4.049,10.539.048L22.271.042,59.288,0c1.97,1.65,3.781,3.654,5.61,5.468,3.069,3.044,6.2,6.072,9.137,9.241.144,7.7.047,15.424.056,23.129,2.248-2.053,7.446-8.229,10.165-8.493a5.213,5.213,0,0,1,3.857,1.482,107.7,107.7,0,0,1,9.153,9.32A3.516,3.516,0,0,1,98,42.089a4.461,4.461,0,0,1-.942,2.72c-1.535,2.165-3.929,4.134-5.826,5.991-4.391,4.3-8.938,8.515-13.128,13.007-1.335,1.4-2.77,2.714-4.118,4.108-.146,3.652.691,14.626-.364,17.318a4.273,4.273,0,0,1-2.216,2.32,6.848,6.848,0,0,1-2.43.366c-4.15.113-8.335-.038-12.488-.048l-22.868.019-18.188,0c-3.232.009-6.523.159-9.747.006A7.782,7.782,0,0,1,2.94,87.32,4.623,4.623,0,0,1,.431,84.5C-.218,82.755.142,34.74.143,29.291c0-7.955-.3-16.011-.026-23.954A6.259,6.259,0,0,1,.61,2.85,5.421,5.421,0,0,1,4.05.113" transform="translate(0)" fill="#1d1221"/>
        <path id="Trazado_905101" data-name="Trazado 905101" d="M420.72,702.182a2.45,2.45,0,0,1,.394.256c.844.65,1.778,1.152,1.927,2.275-.368.466-.821.486-1.376.642a17.859,17.859,0,0,1-2.091.463c.327-1.236.723-2.43,1.146-3.636" transform="translate(-373.811 -625.594)" fill="#51e4cf"/>
        <path id="Trazado_905102" data-name="Trazado 905102" d="M470.943,369.788l-.382-.511.123-.47c3.636-3.855,7.612-7.447,11.375-11.183l10.323-10.155c1.194-1.163,2.333-2.432,3.561-3.549a2.153,2.153,0,0,1,1.09-.674l.4.3a1.366,1.366,0,0,1-.192.576c-.97,1.522-7.259,7.232-8.969,8.871Z" transform="translate(-419.236 -305.808)" fill="#ffd78c"/>
        <path id="Trazado_905103" data-name="Trazado 905103" d="M546.532,32.043c1.539.916,9.272,8.874,10.612,10.477-1.252.069-2.509.114-3.763.131a6.833,6.833,0,0,1-5.17-1.689c-2.263-2.282-1.726-5.98-1.679-8.918" transform="translate(-486.842 -28.548)" fill="#fff"/>
        <path id="Trazado_905104" data-name="Trazado 905104" d="M437.93,597.945c1.3,1.068,2.493,2.406,3.7,3.588l7.391,7.277-3.8,1c-1.791.431-3.567.955-5.344,1.441-1.441-1.477-2.863-2.967-4.436-4.306Z" transform="translate(-387.944 -532.726)" fill="#fff"/>
        <path id="Trazado_905105" data-name="Trazado 905105" d="M731.607,287.767l.11-.008a3.42,3.42,0,0,1,2.955,1.1c1.669,1.5,9.2,8.4,9.292,10.118-.634,1.738-3.077,3.594-4.42,4.89l-.089.048a1.294,1.294,0,0,1-.37-.005c-.579-.183-10.822-10.769-11.841-11.811Z" transform="translate(-647.923 -256.361)" fill="#fff"/>
        <path id="Trazado_905106" data-name="Trazado 905106" d="M19.166,90.457l-.05-44.376c-.007-7.855-.231-15.776-.006-23.625.034-1.205.094-2.472,1.113-3.312a5.013,5.013,0,0,1,2.619-.528c3.007-.122,6.055-.012,9.067-.006l17.085.012,15.969-.042c3.11-.008,6.258-.114,9.363.051.391.277.336.541.425,1l-.171.019c-3.542.366-7.4.082-10.974.086l-25.868-.012c-4.338-.009-8.957-.33-13.263.056a3.884,3.884,0,0,0-1.922.512,4.507,4.507,0,0,0-.692,2.434c-.136,2.145,0,4.364.02,6.518l.028,11.043.031,35.959c0,4.722.117,9.473.019,14.192Z" transform="translate(-16.937 -16.518)" fill="#fff"/>
        <path id="Trazado_905107" data-name="Trazado 905107" d="M500.553,345.986c4.1,3.507,7.583,7.763,11.528,11.459-5.353,5.48-10.823,10.847-16.238,16.266-3.3,3.306-6.622,7.107-10.318,9.947-1.14-1.362-10.406-10.784-11.46-11.43l17.327-16.8c1.71-1.639,8-7.349,8.969-8.871a1.364,1.364,0,0,0,.192-.576" transform="translate(-422.358 -308.249)" fill="#fa975e"/>
        <path id="Trazado_905108" data-name="Trazado 905108" d="M587.319,439.457a3.465,3.465,0,0,1,.631.285c.4.263.429.489.511.919a2.206,2.206,0,0,1-.685,1.1c-3.446,3.794-7.349,7.333-10.995,10.947-2.933,2.908-5.864,6.238-9.07,8.82a2.618,2.618,0,0,1-.546-.288,1.113,1.113,0,0,1-.509-1.045c.815-1.751,17.912-18.242,20.663-20.738" transform="translate(-504.85 -391.525)" fill="#1d1221"/>
        <path id="Trazado_905109" data-name="Trazado 905109" d="M548.008,396.841a2.773,2.773,0,0,1,.746.068c.484.154.574.412.734.837a1.624,1.624,0,0,1-.424.909c-2.43,2.944-5.514,5.62-8.23,8.308-3.939,3.9-7.8,7.951-11.853,11.723a1.457,1.457,0,0,1-.977-.173c-.4-.283-.4-.513-.444-.96.58-1.291,17.558-18.036,20.448-20.712" transform="translate(-470.018 -353.557)" fill="#1d1221"/>
        <path id="Trazado_905110" data-name="Trazado 905110" d="M62.041,647.4c-.564,1.725-1.66,4.083-1.416,5.882a1.464,1.464,0,0,0,.811.713c.958.116,17.088-4.23,19.074-4.917a4.973,4.973,0,0,0,1.5-.831,74.5,74.5,0,0,0,7.093-6.89c.009,2.771.564,13.851-.77,15.467-3.011.68-6.265.413-9.339.406l-11.6-.03c-15.209-.028-30.434-.146-45.642.031a3.927,3.927,0,0,1-1.406-.773c-1.644-1.514-.959-6.913-.95-8.973,4.707-.376,9.631-.054,14.363-.056Z" transform="translate(-17.146 -571.401)" fill="#fd868a"/>
        <path id="Trazado_905111" data-name="Trazado 905111" d="M19.394,697.544c.928.036,1.852.075,2.781.058,0,2.82.339,6.714-.11,9.407l-.315.281a3.929,3.929,0,0,1-1.406-.773c-1.645-1.514-.959-6.914-.95-8.973" transform="translate(-17.146 -621.462)" fill="#fff"/>
        <path id="Trazado_905112" data-name="Trazado 905112" d="M97.55,28.214c-.652,2.728-.512,6.876.975,9.317a7.82,7.82,0,0,0,4.951,3.571c2.577.6,5.592.143,8.24.2l.007,23.51c-2.8,3.1-5.905,5.963-8.884,8.886L88.231,88.021c-.978,3.669-1.919,7.356-3.022,10.99l-40.451.009c.1-4.718-.023-9.469-.019-14.192l-.031-35.959-.028-11.043c-.019-2.153-.156-4.373-.02-6.517a4.508,4.508,0,0,1,.692-2.434,3.885,3.885,0,0,1,1.922-.512c4.306-.387,8.925-.066,13.263-.056l25.868.012c3.573,0,7.432.28,10.974-.086Z" transform="translate(-39.735 -25.1)" fill="#fd868a"/>
        <path id="Trazado_905113" data-name="Trazado 905113" d="M242.954,516.284c2.245-.161,4.574-.042,6.827-.044,2.57,0,5.214-.131,7.774.089a1.206,1.206,0,0,1,.611.707,1.924,1.924,0,0,1-.437,1.3c-3.052.123-6.141.039-9.2.046a27.375,27.375,0,0,1-5.154-.085,1.189,1.189,0,0,1-.848-.669,2.186,2.186,0,0,1,.424-1.34" transform="translate(-216.077 -459.897)" fill="#1d1221"/>
        <path id="Trazado_905114" data-name="Trazado 905114" d="M242.924,454.308c4.14-.154,8.338-.021,12.483-.039a76.937,76.937,0,0,1,8.544.043c.508.056.658.28.949.652a2.039,2.039,0,0,1-.406,1.407c-2.122.215-20.152.238-21.229-.055-.412-.112-.531-.371-.743-.7a1.88,1.88,0,0,1,.4-1.307" transform="translate(-216.064 -404.626)" fill="#1d1221"/>
        <path id="Trazado_905115" data-name="Trazado 905115" d="M243.088,387.711c3.382-.108,28.675-.262,29.721.083.346.114.387.288.557.586a1.969,1.969,0,0,1-.477,1.369c-6.5.3-13.118.067-19.63.077-2.408,0-7.526.345-9.687-.075-.486-.095-.578-.266-.834-.645a2.037,2.037,0,0,1,.35-1.4" transform="translate(-216.251 -345.308)" fill="#1d1221"/>
        <path id="Trazado_905116" data-name="Trazado 905116" d="M242.37,322.447c7.791-.31,16.256-.021,24.128-.032l8.275-.009a25.042,25.042,0,0,1,4.019.067,1.165,1.165,0,0,1,.857.592,1.839,1.839,0,0,1-.435,1.385c-2.636.181-5.389.032-8.037.034l-15.691.032c-2.286,0-11.142.335-12.82-.046-.448-.1-.554-.352-.757-.713a2.041,2.041,0,0,1,.46-1.309" transform="translate(-215.525 -287.149)" fill="#1d1221"/>
        <path id="Trazado_905117" data-name="Trazado 905117" d="M245.456,253.86c3.787-.008,31.224-.267,32.089.19a1.4,1.4,0,0,1,.645.788c.082.345.005.407-.169.687-1.219.76-3.241.477-4.634.454-9.85.013-19.709-.061-29.558.074-1.245.017-2.71-.023-3.655-.946-.033-.2-.116-.3.033-.468,1.013-1.126,3.89-.8,5.25-.778" transform="translate(-213.93 -226.099)" fill="#1d1221"/>
        <path id="Trazado_905118" data-name="Trazado 905118" d="M242.346,186.227c4.554-.025,35.364-.445,36.747.184.264.312.483.517.428.97-.063.518-.364.7-.735,1-4.585.005-34.939.39-36.6-.179a1.309,1.309,0,0,1-.582-.908,1.758,1.758,0,0,1,.746-1.067" transform="translate(-215.248 -165.772)" fill="#1d1221"/>
        <path id="Trazado_905119" data-name="Trazado 905119" d="M95.3,179.537c1.631-.024,6.715-.4,7.958.129.378.161.485.484.613.843.557,1.555.49,6.593-.335,8.073a2.622,2.622,0,0,1-1.734,1.23c-2.027.059-5.817.6-7.586-.438a3.1,3.1,0,0,1-1.232-1.863c-.452-1.712-.552-5.4.446-6.918a2.5,2.5,0,0,1,1.87-1.055" transform="translate(-82.549 -159.82)" fill="#1d1221"/>
        <path id="Trazado_905120" data-name="Trazado 905120" d="M116.327,198.379c1.629-.418,3.745-.171,5.445-.212a25.7,25.7,0,0,1-3.365,3.11,1.952,1.952,0,0,0-1.55.155,3.541,3.541,0,0,0-.624.707c.082-1.373-.288-2.343.681-3.451l.143-.161Z" transform="translate(-103.551 -176.52)" fill="#d57db5"/>
        <path id="Trazado_905121" data-name="Trazado 905121" d="M113.274,200.4l.73.147-.143.161c-.97,1.109-.6,2.078-.681,3.451a4.389,4.389,0,0,0,2.341,2.037c1.646-.973,3.1-2.979,4.426-4.374l-.219,4.484a26.985,26.985,0,0,1-6.324.115c-.043-.03-.088-.057-.128-.091-.547-.467-.421-1.678-.431-2.338-.014-.984-.227-2.919.428-3.592" transform="translate(-100.499 -178.546)" fill="#fff"/>
        <path id="Trazado_905122" data-name="Trazado 905122" d="M95.3,314.258c2.341-.034,6.1-.475,8.279.183a1.344,1.344,0,0,1,.512.659c.6,1.617.535,6.694-.267,8.257a2.5,2.5,0,0,1-1.616,1.24c-2.141.05-5.207.48-7.217-.213a2.359,2.359,0,0,1-1.484-1.335c-.8-1.693-.691-5.572.019-7.269a2.782,2.782,0,0,1,1.774-1.522" transform="translate(-82.811 -279.824)" fill="#1d1221"/>
        <path id="Trazado_905123" data-name="Trazado 905123" d="M112.755,335.6l.426.161a12.666,12.666,0,0,1-.114,3.278,2.112,2.112,0,0,0,.709,1.593,2.042,2.042,0,0,0,1.521.5,2.508,2.508,0,0,0,1.107-.621l.056,1.248a9.685,9.685,0,0,1-3.152-.1,1.166,1.166,0,0,1-.682-.763,12.558,12.558,0,0,1,.128-5.3" transform="translate(-100.145 -298.996)" fill="#fff"/>
        <path id="Trazado_905124" data-name="Trazado 905124" d="M149.072,350.043c.8-1.39,2.213-2.5,3.238-3.743-.022,1.619.045,3.3-.093,4.91-1.029.052-2.059.12-3.089.081Z" transform="translate(-132.813 -308.529)" fill="#f85665"/>
        <path id="Trazado_905125" data-name="Trazado 905125" d="M115.612,332.223c1.623-.514,3.78-.2,5.514-.413-.644.739-2.39,3.157-3.342,3.269-.463-.293-.5-.371-1.066-.317a3.359,3.359,0,0,0-.794.9,12.666,12.666,0,0,0,.114-3.278Z" transform="translate(-103.002 -295.619)" fill="#fd868a"/>
        <path id="Trazado_905126" data-name="Trazado 905126" d="M95.053,454.877c1.889-.014,6.8-.371,8.278.121a1,1,0,0,1,.616.541c.825,1.541.652,6.308.082,7.972a2.905,2.905,0,0,1-1.715,1.746c-2.176.054-5.151.46-7.209-.152a2.507,2.507,0,0,1-1.577-1.395c-.82-1.61-.78-5.442-.173-7.148a2.945,2.945,0,0,1,1.7-1.686" transform="translate(-82.772 -405.14)" fill="#1d1221"/>
        <path id="Trazado_905127" data-name="Trazado 905127" d="M160.662,490.809l.219-.293c.464.841.115,3.308.06,4.347l-2.017.178a18.382,18.382,0,0,1,1.879-3.782Z" transform="translate(-141.591 -437.015)" fill="#f85665"/>
        <path id="Trazado_905128" data-name="Trazado 905128" d="M114.2,480.979a11.705,11.705,0,0,1-1.872-.06,1.175,1.175,0,0,1-.24-.4c-.292-.959-.4-4.492.094-5.429.152-.288.477-.3.776-.4a5.81,5.81,0,0,0-.428,3.591,3.452,3.452,0,0,0,1.9,2.327c.039.023.08.042.119.064,1.548-.494,3.109-2.75,4.169-3.963l.142.449a18.391,18.391,0,0,0-1.879,3.782Z" transform="translate(-99.639 -422.916)" fill="#fff"/>
        <path id="Trazado_905129" data-name="Trazado 905129" d="M117.815,474.116c1.676.064,3.351-.016,5.026-.07-.857.86-2.437,2.865-3.633,3.109l-.769-.45a1.392,1.392,0,0,0-.961.839c-.031.054-.061.109-.091.164a5.81,5.81,0,0,1,.428-3.591" transform="translate(-104.499 -422.341)" fill="#d57db5"/>
      </g>
    </g>
  </g>
</svg>
