<svg xmlns="http://www.w3.org/2000/svg" xmlns:xlink="http://www.w3.org/1999/xlink" width="136" height="136" viewBox="0 0 136 136">
  <defs>
    <clipPath id="clip-path">
      <rect id="Rect치ngulo_402397" data-name="Rect치ngulo 402397" width="88.543" height="85.738" fill="none"/>
    </clipPath>
  </defs>
  <g id="Grupo_1110209" data-name="Grupo 1110209" transform="translate(2918 9341)">
    <g id="Grupo_1110206" data-name="Grupo 1110206" transform="translate(0 354)">
      <rect id="Rect치ngulo_402395" data-name="Rect치ngulo 402395" width="136" height="136" rx="68" transform="translate(-2918 -9695)" fill="#fecfb5"/>
    </g>
    <g id="Grupo_1110208" data-name="Grupo 1110208" transform="translate(-2890.574 -9311.2)">
      <g id="Grupo_1110207" data-name="Grupo 1110207" clip-path="url(#clip-path)">
        <path id="Trazado_905089" data-name="Trazado 905089" d="M5.956.061l2.2-.032L42.282.036l9.852.005A37.141,37.141,0,0,1,57.986.19a6.885,6.885,0,0,1,3.668,1.963,6.594,6.594,0,0,1,1.82,3.33c.649,3.191.274,6.991.27,10.271l-.017,18.368c.72.021,1.447.042,2.164.113A25.614,25.614,0,0,1,82.9,43.683a25.98,25.98,0,0,1,5.484,19.131A26.613,26.613,0,0,1,78.2,80.718a24.46,24.46,0,0,1-8.891,4.267,25,25,0,0,1-19.329-3.1l-29.929.03c-4.693,0-9.7.385-14.357-.088a5.438,5.438,0,0,1-2.358-.816,6.811,6.811,0,0,1-3.047-4.03C-.232,74.676.109,71.636.11,69.26L.121,53.97.128,23.262c0-5.363-.226-10.854.078-16.2a7.264,7.264,0,0,1,.985-3.9A7.121,7.121,0,0,1,5.956.061" transform="translate(0 -0.001)" fill="#253149"/>
        <path id="Trazado_905090" data-name="Trazado 905090" d="M368.868,365.308a25.27,25.27,0,0,1-3.08-17.225,23.374,23.374,0,0,1,9.76-15,22.866,22.866,0,0,1,17.316-3.764c4.988.93,10.421,3.928,13.336,8.171-6.393-4.643-12.122-7.478-20.274-6.169a22.371,22.371,0,0,0-14.428,8.795,25.4,25.4,0,0,0-4.477,18.789c.3,1.713,1.91,5.039,1.846,6.4" transform="translate(-325.281 -292.824)" fill="#fff"/>
        <path id="Trazado_905091" data-name="Trazado 905091" d="M456.339,414.294c.351-1.9-.752-4.834-.31-6.316l.358-.044c3.606,3.279,5.272,9.345,5.5,14.084a23.9,23.9,0,0,1-6.2,17.215,22.931,22.931,0,0,1-16.222,7.6,22.63,22.63,0,0,1-16.571-6.327,17.758,17.758,0,0,1-1.278-1.255c4.216,1.607,8.2,2.9,12.8,2.2a26.165,26.165,0,0,0,17.08-10.459c2.513-3.448,5.262-9.261,4.579-13.59a7.468,7.468,0,0,0,.267-3.108" transform="translate(-375.338 -363.158)" fill="#1fc2b0"/>
        <path id="Trazado_905092" data-name="Trazado 905092" d="M18.078,528.469c2.451.212,5.066.008,7.542.008,3.656,0,7.42.225,11.057-.094a16.532,16.532,0,0,0,3.176-.6c6.893-2.009,11.076-7,14.425-13.02-.384,7.85,1.105,14.86,6.528,20.82a37.623,37.623,0,0,0,2.747,2.653l-27.273.012c-4.263,0-9.322.339-13.508-.087a5.547,5.547,0,0,1-3.177-1.045c-1.569-1.5-1.559-3.653-1.548-5.667Z" transform="translate(-16.066 -458.259)" fill="#7cc995"/>
        <path id="Trazado_905093" data-name="Trazado 905093" d="M379.442,382.113c.064-1.365-1.55-4.691-1.846-6.4a25.4,25.4,0,0,1,4.477-18.789,22.371,22.371,0,0,1,14.428-8.795c8.152-1.309,13.881,1.526,20.274,6.169l.13.111-.358.044c-.442,1.482.661,4.412.31,6.316a7.468,7.468,0,0,1-.268,3.107c.682,4.329-2.066,10.142-4.58,13.59a26.163,26.163,0,0,1-17.08,10.459c-4.6.7-8.581-.588-12.8-2.2a13.558,13.558,0,0,1-2.691-3.613" transform="translate(-335.855 -309.629)" fill="#46d2be"/>
        <path id="Trazado_905094" data-name="Trazado 905094" d="M426.409,448.1c2.884-2.945,12.872-13.737,15.63-15.255a3.917,3.917,0,0,1,3.051-.281c1.69.554,2.63,1.994,3.411,3.49a7.468,7.468,0,0,1-.267,3.107c-.081.133-.162.26-.251.388-2.187,3.127-7.061,7.449-9.948,10.345-2.821,2.83-5.586,5.994-8.63,8.557a4.54,4.54,0,0,1-2.1,1.231,4.638,4.638,0,0,1-3.8-1.242c-1.98-1.631-8.814-8.448-10.08-10.451a4.225,4.225,0,0,1-.6-1.874,4.824,4.824,0,0,1,1.308-3.631,4.008,4.008,0,0,1,2.947-1.476c3.271-.089,7.13,4.955,9.326,7.092" transform="translate(-367.499 -384.922)" fill="#253149"/>
        <path id="Trazado_905095" data-name="Trazado 905095" d="M458.673,449.8a3.522,3.522,0,0,1,2.408.774,2.672,2.672,0,0,1,1.065,1.86c.1,1.363-.921,2.4-1.787,3.313-3.57,3.767-7.275,7.394-10.92,11.086-1.918,1.943-3.885,4.376-6.08,5.986a2.368,2.368,0,0,1-1.438.4c-1.8-.025-6.968-6.092-8.518-7.577-1.1-1.1-3.2-2.816-3.228-4.473a2.751,2.751,0,0,1,.85-1.872,2.361,2.361,0,0,1,1.786-.689c2.392.084,7.087,5.824,8.885,7.7,3.526-3.156,6.783-6.688,10.1-10.069,2.02-2.063,4.366-5.093,6.883-6.438" transform="translate(-382.956 -400.431)" fill="#fff"/>
        <path id="Trazado_905096" data-name="Trazado 905096" d="M18.058,20.634a5.777,5.777,0,0,1,1.617-2.956,4.076,4.076,0,0,1,2.107-1.148c3.028-.513,10.477-.15,13.914-.147,9.273.006,18.595-.186,27.862.053,3.17.037,10.458-.83,12.674,1.543a6.462,6.462,0,0,1,.586.77,5.912,5.912,0,0,1,.824,2.307,71.324,71.324,0,0,1,.115,9.068L77.749,48.6a27.577,27.577,0,0,0-9.5,2.537c-6.176,3.417-11.119,8.774-13.093,15.657-.393,1.372-.584,2.828-1.007,4.178-3.349,6.022-7.532,11.011-14.425,13.02a16.529,16.529,0,0,1-3.176.6c-3.638.319-7.4.094-11.057.094-2.477,0-5.091.2-7.542-.009l-.01-43.187V28.2a74.045,74.045,0,0,1,.118-7.563" transform="translate(-15.937 -14.471)" fill="#adddb8"/>
        <path id="Trazado_905097" data-name="Trazado 905097" d="M136.173,143.217a1.9,1.9,0,0,1,.863.249,1.152,1.152,0,0,1,.329,1.059c-1.053,1.954-9.571,9.93-11.824,12.191-5.178,5.2-10.243,10.684-15.644,15.635a39.333,39.333,0,0,1-4.188-3.955c-2.218-2.207-4.433-4.414-6.682-6.588a2.4,2.4,0,0,1-.794-.98,1.5,1.5,0,0,1,.157-1.175c.183-.272.264-.21.566-.267,1.746.656,9.127,8.578,10.925,10.356,2.673-2.892,5.556-5.63,8.33-8.429Z" transform="translate(-87.401 -127.497)" fill="#253149"/>
        <path id="Trazado_905098" data-name="Trazado 905098" d="M19.321,20.634a5.777,5.777,0,0,1,1.617-2.956,4.076,4.076,0,0,1,2.107-1.148c3.028-.513,10.477-.15,13.914-.147,9.273.006,18.595-.186,27.862.053a7.73,7.73,0,0,1,3.211,2.44c-2.032.5-7.49.06-9.886.045l-22.386-.038c-4.52-.021-9.335-.367-13.811.182l-.182.15c-.751.625-1.522,2.351-2.238,2.669a3.127,3.127,0,0,1-.208-1.248" transform="translate(-17.2 -14.471)" fill="#c5e5ce"/>
        <path id="Trazado_905099" data-name="Trazado 905099" d="M473.982,38.97a5.912,5.912,0,0,1,.824,2.307,71.322,71.322,0,0,1,.115,9.068l-.008,18.476a27.576,27.576,0,0,0-9.5,2.537c-.112-6.431-.065-12.871-.053-19.3.006-3.166.3-6.646-.162-9.777a8.377,8.377,0,0,0-1.164-3.09c2.923-.072,7.264.3,9.947-.219" transform="translate(-413.101 -34.693)" fill="#7cc995"/>
      </g>
    </g>
  </g>
</svg>
